<svg width="54" height="54" viewBox="0 0 54 54" fill="none" xmlns="http://www.w3.org/2000/svg">
<g filter="url(#filter0_d_1843_6606)">
<rect x="6" y="6" width="48" height="48" rx="6" fill="#05E27E"/>
<path d="M27 30L29 32L33 28M38.6179 23.9843C38.4132 23.9947 38.2072 24 38 24C34.9265 24 32.123 22.8445 29.9999 20.9443C27.8769 22.8445 25.0734 23.9998 22 23.9998C21.7928 23.9998 21.5868 23.9946 21.3821 23.9842C21.1327 24.9478 21 25.9584 21 27C21 32.5915 24.8243 37.2898 30 38.622C35.1757 37.2898 39 32.5915 39 27C39 25.9585 38.8673 24.9479 38.6179 23.9843Z" stroke="#1F234C" stroke-width="2" stroke-linecap="round" stroke-linejoin="round"/>
</g>
<defs>
<filter id="filter0_d_1843_6606" x="0" y="0" width="54" height="54" filterUnits="userSpaceOnUse" color-interpolation-filters="sRGB">
<feFlood flood-opacity="0" result="BackgroundImageFix"/>
<feColorMatrix in="SourceAlpha" type="matrix" values="0 0 0 0 0 0 0 0 0 0 0 0 0 0 0 0 0 0 127 0" result="hardAlpha"/>
<feOffset dx="-6" dy="-6"/>
<feComposite in2="hardAlpha" operator="out"/>
<feColorMatrix type="matrix" values="0 0 0 0 0.109804 0 0 0 0 0.47451 0 0 0 0 0.309804 0 0 0 1 0"/>
<feBlend mode="normal" in2="BackgroundImageFix" result="effect1_dropShadow_1843_6606"/>
<feBlend mode="normal" in="SourceGraphic" in2="effect1_dropShadow_1843_6606" result="shape"/>
</filter>
</defs>
</svg>
