<svg width="115" height="32" viewBox="0 0 115 32" fill="none" xmlns="http://www.w3.org/2000/svg">
<path d="M23.9998 18.0945V3.58301H30.1426C31.5449 3.58301 32.6587 3.93608 33.481 4.63897C34.3064 5.34349 34.7206 6.29095 34.7206 7.48296C34.7206 8.1567 34.5749 8.77053 34.2849 9.3228C33.998 9.8767 33.593 10.3124 33.0698 10.6314C33.7234 10.9343 34.2312 11.3829 34.5918 11.9789C34.9508 12.5749 35.1318 13.26 35.1318 14.0325C35.1318 14.8488 34.9354 15.5614 34.5427 16.1704C34.1499 16.7761 33.6037 17.249 32.9042 17.5891C32.2046 17.926 31.3899 18.0945 30.4617 18.0945H23.9998ZM27.0804 15.4837H29.9892C30.6029 15.4837 31.0785 15.3331 31.4191 15.0302C31.7627 14.7241 31.9345 14.2949 31.9345 13.741C31.9345 13.1887 31.7627 12.7612 31.4191 12.4583C31.0785 12.1522 30.6029 11.9984 29.9892 11.9984H27.0804V15.4837ZM27.0804 9.49124H29.6762C30.2776 9.49124 30.7379 9.3471 31.057 9.05719C31.3792 8.76891 31.5418 8.36077 31.5418 7.83279C31.5418 7.30642 31.3792 6.90315 31.057 6.62134C30.7379 6.3363 30.2776 6.19377 29.6762 6.19377H27.0804V9.49124Z" fill="white"/>
<path d="M42.2403 18.3856C41.1387 18.3856 40.166 18.1426 39.3192 17.66C38.4754 17.1774 37.8187 16.5036 37.3493 15.6388C36.8783 14.7755 36.6436 13.7763 36.6436 12.6393C36.6436 11.5088 36.8798 10.5144 37.3554 9.65928C37.8341 8.8009 38.4938 8.12877 39.3376 7.64452C40.1844 7.16188 41.1633 6.91895 42.2771 6.91895C43.4553 6.91895 44.471 7.19589 45.327 7.74817C46.1862 8.30207 46.8397 9.07623 47.2908 10.0739C47.7449 11.0683 47.9382 12.2279 47.8738 13.5527H39.6076C39.7503 14.301 40.0632 14.8711 40.5465 15.263C41.0329 15.6566 41.6158 15.8526 42.2955 15.8526C42.7941 15.8526 43.2497 15.7538 43.664 15.5546C44.0767 15.357 44.4065 15.0752 44.652 14.7124H47.6774C47.2309 15.8623 46.5298 16.7628 45.5725 17.4138C44.6182 18.0617 43.5075 18.3856 42.2403 18.3856ZM39.626 11.5639H44.9895C44.8177 10.8999 44.4986 10.3768 44.0322 9.99615C43.5689 9.61717 42.9905 9.42606 42.2955 9.42606C41.6404 9.42606 41.0743 9.61717 40.5956 9.99615C40.12 10.3768 39.7978 10.8999 39.626 11.5639Z" fill="white"/>
<path d="M50.1096 18.0945V7.21094H52.3311L52.7239 8.66208C53.0629 8.15353 53.4802 7.78427 53.9758 7.55429C54.4744 7.32593 55.1049 7.21094 55.8659 7.21094H56.9828V10.0744H55.8475C54.996 10.0744 54.3256 10.3173 53.8346 10.7999C53.3437 11.2842 53.0982 12.1134 53.0982 13.2876V18.0945H50.1096Z" fill="white"/>
<path d="M64.0169 18.3856C62.9153 18.3856 61.9426 18.1426 61.0958 17.66C60.252 17.1774 59.5953 16.5036 59.1259 15.6388C58.6549 14.7755 58.4202 13.7763 58.4202 12.6393C58.4202 11.5088 58.6564 10.5144 59.132 9.65928C59.6107 8.8009 60.2704 8.12877 61.1142 7.64452C61.9611 7.16188 62.9399 6.91895 64.0537 6.91895C65.2319 6.91895 66.2476 7.19589 67.1036 7.74817C67.9628 8.30207 68.6163 9.07623 69.0674 10.0739C69.5215 11.0683 69.7148 12.2279 69.6504 13.5527H61.3842C61.5269 14.301 61.8399 14.8711 62.3231 15.263C62.8095 15.6566 63.3925 15.8526 64.0721 15.8526C64.5707 15.8526 65.0264 15.7538 65.4406 15.5546C65.8533 15.357 66.1831 15.0752 66.4286 14.7124H69.454C69.0076 15.8623 68.3064 16.7628 67.3491 17.4138C66.3948 18.0617 65.2841 18.3856 64.0169 18.3856ZM61.4026 11.5639H66.7661C66.5943 10.8999 66.2752 10.3768 65.8088 9.99615C65.3455 9.61717 64.7671 9.42606 64.0721 9.42606C63.417 9.42606 62.8509 9.61717 62.3722 9.99615C61.8966 10.3768 61.5744 10.8999 61.4026 11.5639Z" fill="white"/>
<path d="M71.885 18.0946V2.75391H74.8736V18.0946H71.885Z" fill="white"/>
<path d="M82.922 18.3856C81.7805 18.3856 80.7741 18.1426 79.9027 17.66C79.0344 17.1774 78.3563 16.5036 77.8653 15.6388C77.3744 14.7755 77.1289 13.7763 77.1289 12.6393C77.1289 11.5088 77.3744 10.5144 77.8653 9.65928C78.3563 8.8009 79.0344 8.12877 79.9027 7.64452C80.7741 7.16188 81.7805 6.91895 82.922 6.91895C84.0588 6.91895 85.0637 7.16188 85.9351 7.64452C86.8065 8.12877 87.4831 8.8009 87.9664 9.65928C88.4527 10.5144 88.6966 11.5088 88.6966 12.6393C88.6966 13.7763 88.4527 14.7755 87.9664 15.6388C87.4831 16.5036 86.8065 17.1774 85.9351 17.66C85.0637 18.1426 84.0588 18.3856 82.922 18.3856ZM80.0745 12.6393C80.0745 13.5252 80.3384 14.2524 80.8662 14.8225C81.397 15.3894 82.0828 15.6712 82.922 15.6712C83.7596 15.6712 84.4408 15.3894 84.9655 14.8225C85.4887 14.2524 85.751 13.5252 85.751 12.6393C85.751 11.7421 85.4887 11.0132 84.9655 10.4561C84.4408 9.89573 83.7596 9.61393 82.922 9.61393C82.0828 9.61393 81.397 9.89573 80.8662 10.4561C80.3384 11.0132 80.0745 11.7421 80.0745 12.6393Z" fill="white"/>
<path d="M94.3866 18.3014C93.1715 18.3014 92.2096 18.0017 91.5023 17.4009C90.7935 16.8016 90.4407 15.974 90.4407 14.9197C90.4407 13.9139 90.7567 13.1106 91.3919 12.5097C92.0255 11.9056 92.88 11.6028 93.957 11.6028H97.6882V11.1104C97.6882 10.5711 97.504 10.1387 97.1358 9.81476C96.7707 9.4876 96.2951 9.3224 95.706 9.3224C95.2181 9.3224 94.8054 9.44225 94.4664 9.67871C94.1258 9.91193 93.9095 10.2229 93.8159 10.6116H90.95C91.1341 9.42444 91.6404 8.51261 92.4719 7.87774C93.3019 7.23962 94.3712 6.91895 95.6814 6.91895C97.2279 6.91895 98.4368 7.33194 99.3082 8.15631C100.18 8.97743 100.615 10.1063 100.615 11.5445V18.0941H98.3939L98.0625 16.8308C97.1573 17.8122 95.933 18.3014 94.3866 18.3014ZM93.3863 14.7966C93.3863 15.1723 93.5397 15.4752 93.8466 15.7036C94.1534 15.9287 94.5615 16.0404 95.0739 16.0404C95.8226 16.0404 96.4424 15.8137 96.9333 15.3602C97.4243 14.9035 97.682 14.3075 97.7066 13.5722H94.8775C94.4311 13.5722 94.0705 13.6856 93.7975 13.9091C93.5228 14.1293 93.3863 14.4257 93.3863 14.7966Z" fill="white"/>
<path d="M107.914 18.3861C106.895 18.3861 105.993 18.1415 105.208 17.6541C104.422 17.1617 103.802 16.4847 103.348 15.6199C102.897 14.7566 102.673 13.7638 102.673 12.6398C102.673 11.5223 102.897 10.5344 103.348 9.67923C103.802 8.82086 104.422 8.14711 105.208 7.658C105.993 7.16565 106.895 6.91947 107.914 6.91947C108.555 6.91947 109.151 7.0215 109.7 7.22395C110.252 7.42316 110.751 7.70173 111.197 8.05965V2.75391H114.18V18.0946H111.958L111.608 16.8507C111.15 17.335 110.605 17.7124 109.976 17.9844C109.35 18.2517 108.663 18.3861 107.914 18.3861ZM105.619 12.6398C105.619 13.5257 105.883 14.2529 106.411 14.823C106.941 15.3899 107.627 15.6717 108.466 15.6717C109.304 15.6717 109.985 15.3899 110.51 14.823C111.033 14.2529 111.295 13.5257 111.295 12.6398C111.295 11.7588 111.033 11.0364 110.51 10.4696C109.985 9.8995 109.304 9.61445 108.466 9.61445C107.627 9.61445 106.941 9.8995 106.411 10.4696C105.883 11.0364 105.619 11.7588 105.619 12.6398Z" fill="white"/>
<path d="M24.759 24.1592V29.3776H24V24.1592H24.759Z" fill="#9CA3AF"/>
<path d="M26.5455 27.0548V29.377H25.812V25.4649H26.52V26.0982H26.5646C26.6491 25.8921 26.7847 25.7271 26.9728 25.6034C27.1594 25.4764 27.3954 25.4121 27.6808 25.4121C27.9391 25.4121 28.1655 25.4682 28.3569 25.577C28.5514 25.6875 28.7029 25.8525 28.8097 26.0718C28.9149 26.2928 28.9691 26.565 28.9691 26.8899V29.377H28.2293V26.9757C28.2293 26.6953 28.1559 26.4743 28.0124 26.3159C27.8721 26.1543 27.6776 26.0718 27.432 26.0718C27.2566 26.0718 27.1036 26.1114 26.9728 26.1906C26.8405 26.2664 26.7368 26.3753 26.6603 26.5204C26.5838 26.6656 26.5455 26.8437 26.5455 27.0548Z" fill="#9CA3AF"/>
<path d="M32.7868 26.4149L32.1235 26.5402C32.0932 26.4528 32.0485 26.3687 31.9895 26.2895C31.9289 26.2104 31.8492 26.1444 31.7472 26.0916C31.6451 26.0388 31.5175 26.0125 31.3645 26.0125C31.1556 26.0125 30.9818 26.0619 30.8415 26.1576C30.7012 26.2549 30.631 26.3786 30.631 26.527C30.631 26.659 30.6772 26.7645 30.7713 26.8437C30.8638 26.9229 31.0153 26.9888 31.2242 27.0416L31.8301 27.1868C32.1777 27.2709 32.4376 27.3979 32.6082 27.5694C32.7772 27.7409 32.8633 27.9652 32.8633 28.2423C32.8633 28.4798 32.7963 28.6909 32.6656 28.8757C32.538 29.0571 32.3563 29.1989 32.1235 29.3045C31.8891 29.4051 31.6196 29.4562 31.3134 29.4562C30.8925 29.4562 30.5481 29.3638 30.2802 29.1791C30.0123 28.9911 29.8465 28.7223 29.7827 28.3743L30.4971 28.2621C30.5385 28.4518 30.6278 28.5969 30.7649 28.6975C30.9053 28.7948 31.087 28.8427 31.3134 28.8427C31.551 28.8427 31.7424 28.7899 31.8875 28.6843C32.031 28.5788 32.1043 28.4518 32.1043 28.3017C32.1043 28.1796 32.0597 28.0757 31.9704 27.9916C31.8843 27.9092 31.7535 27.8465 31.5749 27.8069L30.9308 27.6618C30.5768 27.5793 30.3153 27.4474 30.1463 27.2659C29.9804 27.0812 29.8975 26.8503 29.8975 26.5732C29.8975 26.3407 29.9581 26.1378 30.0825 25.9663C30.21 25.7914 30.3823 25.6546 30.5991 25.5572C30.8191 25.4616 31.0727 25.4121 31.3581 25.4121C31.7663 25.4121 32.0868 25.5045 32.3212 25.6892C32.5588 25.8706 32.7134 26.1114 32.7868 26.4149Z" fill="#9CA3AF"/>
<path d="M35.4386 25.4649V26.0718H33.3721V25.4649H35.4386ZM33.9206 24.5215H34.6604V28.2291C34.6604 28.3743 34.6812 28.4848 34.7242 28.559C34.7657 28.6349 34.8215 28.6843 34.89 28.7107C34.957 28.7371 35.032 28.7503 35.1133 28.7503C35.1723 28.7503 35.2233 28.747 35.2664 28.7371C35.3126 28.7289 35.3493 28.7223 35.3748 28.7173L35.5087 29.3441C35.4609 29.3622 35.3971 29.3787 35.3174 29.3968C35.2408 29.4133 35.1452 29.4249 35.0304 29.4298C34.8342 29.4331 34.6509 29.3985 34.4819 29.3243C34.316 29.2451 34.1789 29.1296 34.0737 28.9746C33.9716 28.8163 33.9206 28.6217 33.9206 28.3875V24.5215Z" fill="#9CA3AF"/>
<path d="M37.3476 29.4628C37.1085 29.4628 36.8916 29.4166 36.6971 29.3243C36.5057 29.2319 36.3527 29.0983 36.2379 28.9218C36.1262 28.747 36.072 28.5293 36.072 28.2687C36.072 28.0493 36.1119 27.8696 36.1932 27.7277C36.2729 27.5826 36.3845 27.4688 36.5249 27.3847C36.6652 27.3022 36.8198 27.2395 36.9905 27.2C37.1643 27.1571 37.3413 27.1241 37.5198 27.101C37.7494 27.0746 37.9344 27.0532 38.0747 27.035C38.215 27.0185 38.3171 26.9888 38.3809 26.9493C38.4447 26.9064 38.4765 26.8371 38.4765 26.7447V26.7316C38.4765 26.5072 38.416 26.3341 38.298 26.2104C38.1784 26.0883 37.9998 26.0257 37.7622 26.0257C37.5103 26.0257 37.3126 26.0834 37.169 26.1972C37.0287 26.3126 36.9331 26.438 36.882 26.5732L36.1868 26.4083C36.2666 26.1708 36.3861 25.9795 36.544 25.8343C36.705 25.6859 36.8884 25.577 37.0925 25.5111C37.2998 25.4451 37.5198 25.4121 37.7494 25.4121C37.9025 25.4121 38.062 25.4303 38.2278 25.4649C38.3968 25.5012 38.5563 25.5671 38.7062 25.6628C38.8544 25.7601 38.9756 25.8987 39.0697 26.0784C39.167 26.2599 39.2164 26.4924 39.2164 26.7777V29.377H38.4957V28.8427H38.4702C38.4223 28.94 38.3506 29.0373 38.2533 29.1329C38.1592 29.2303 38.0365 29.3094 37.8834 29.3704C37.7335 29.4315 37.5549 29.4628 37.3476 29.4628ZM37.5071 28.8493C37.7112 28.8493 37.885 28.8097 38.0301 28.7305C38.1784 28.648 38.2916 28.5375 38.3681 28.4007C38.4447 28.2654 38.4829 28.1203 38.4829 27.9652V27.4572C38.4574 27.4886 38.4064 27.515 38.3299 27.5364C38.2533 27.5595 38.1672 27.5793 38.0747 27.5958C37.9807 27.609 37.8866 27.6222 37.7941 27.6354C37.7048 27.6486 37.6299 27.6601 37.5709 27.6684C37.4258 27.6865 37.2934 27.7178 37.1754 27.7607C37.0606 27.8053 36.9665 27.8696 36.8948 27.952C36.8262 28.0362 36.7927 28.1467 36.7927 28.2819C36.7927 28.4716 36.8581 28.6151 36.9905 28.7107C37.126 28.8031 37.2982 28.8493 37.5071 28.8493Z" fill="#9CA3AF"/>
<path d="M40.9325 27.0548V29.377H40.199V25.4649H40.9069V26.0982H40.9516C41.0361 25.8921 41.1716 25.7271 41.3598 25.6034C41.5463 25.4764 41.7823 25.4121 42.0677 25.4121C42.3261 25.4121 42.5525 25.4682 42.7438 25.577C42.9383 25.6875 43.0898 25.8525 43.1967 26.0718C43.3019 26.2928 43.3561 26.565 43.3561 26.8899V29.377H42.6163V26.9757C42.6163 26.6953 42.5429 26.4743 42.3994 26.3159C42.2591 26.1543 42.0646 26.0718 41.819 26.0718C41.6436 26.0718 41.4905 26.1114 41.3598 26.1906C41.2274 26.2664 41.1238 26.3753 41.0473 26.5204C40.9707 26.6656 40.9325 26.8437 40.9325 27.0548Z" fill="#9CA3AF"/>
<path d="M46.1085 25.4649V26.0718H44.042V25.4649H46.1085ZM44.5905 24.5215H45.3304V28.2291C45.3304 28.3743 45.3511 28.4848 45.3941 28.559C45.4356 28.6349 45.4914 28.6843 45.56 28.7107C45.6269 28.7371 45.7019 28.7503 45.7832 28.7503C45.8422 28.7503 45.8932 28.747 45.9363 28.7371C45.9825 28.7289 46.0192 28.7223 46.0447 28.7173L46.1786 29.3441C46.1308 29.3622 46.067 29.3787 45.9873 29.3968C45.9108 29.4133 45.8151 29.4249 45.7003 29.4298C45.5042 29.4331 45.3208 29.3985 45.1518 29.3243C44.9859 29.2451 44.8488 29.1296 44.7436 28.9746C44.6415 28.8163 44.5905 28.6217 44.5905 28.3875V24.5215Z" fill="#9CA3AF"/>
<path d="M50.2251 29.45C49.8838 29.45 49.5936 29.3856 49.3513 29.2586C49.1089 29.1316 48.9208 28.9585 48.79 28.7375C48.6577 28.5181 48.5923 28.2691 48.5923 27.992C48.5923 27.7809 48.6337 27.5928 48.7198 27.4246C48.8044 27.258 48.9239 27.1046 49.077 26.9628C49.2301 26.8226 49.4055 26.6824 49.6064 26.5406L50.4164 25.9468C50.5567 25.8512 50.6652 25.7522 50.7417 25.65C50.8182 25.5444 50.8565 25.4158 50.8565 25.2607C50.8565 25.1387 50.8055 25.0216 50.7034 24.9111C50.6014 24.7973 50.4642 24.7395 50.2952 24.7395C50.1756 24.7395 50.072 24.7709 49.9827 24.8319C49.8934 24.8896 49.8232 24.9638 49.7722 25.0562C49.7244 25.1486 49.7021 25.2459 49.7021 25.3465C49.7021 25.4652 49.7308 25.5873 49.7914 25.7093C49.8551 25.8281 49.9381 25.9518 50.0401 26.0788C50.1422 26.2074 50.2458 26.341 50.3526 26.4812L52.6998 29.3774H51.8642L49.9253 27.0222C49.7627 26.821 49.6128 26.6313 49.4725 26.4548C49.3321 26.28 49.2189 26.1019 49.1344 25.9204C49.0483 25.7407 49.0069 25.5444 49.0069 25.3333C49.0069 25.0958 49.0595 24.8847 49.1663 24.7C49.2715 24.5119 49.4182 24.3635 49.6064 24.2579C49.7977 24.1524 50.021 24.0996 50.2761 24.0996C50.5344 24.0996 50.7576 24.1524 50.9458 24.2579C51.1323 24.3635 51.2774 24.502 51.3795 24.6736C51.4815 24.8451 51.5326 25.0348 51.5326 25.2409C51.5326 25.4883 51.472 25.706 51.354 25.8941C51.2344 26.0837 51.0702 26.2569 50.8629 26.4152L49.8488 27.1871C49.6479 27.3372 49.5107 27.484 49.4342 27.6291C49.3608 27.7743 49.3258 27.8897 49.3258 27.9722C49.3258 28.1223 49.3608 28.2608 49.4342 28.3878C49.5107 28.5165 49.6144 28.6171 49.7467 28.6913C49.8822 28.7671 50.0417 28.8034 50.2251 28.8034C50.4116 28.8034 50.595 28.7622 50.7736 28.6781C50.9522 28.5956 51.1132 28.4736 51.2583 28.3152C51.4066 28.1569 51.523 27.9689 51.6091 27.7479C51.6936 27.5285 51.7367 27.2828 51.7367 27.009H52.4C52.4 27.3438 52.3617 27.6275 52.2852 27.86C52.2118 28.0942 52.1225 28.2822 52.0173 28.4274C51.9153 28.5725 51.8196 28.6847 51.7303 28.7638C51.7 28.7902 51.6697 28.8199 51.641 28.8496C51.6155 28.876 51.5868 28.9024 51.5581 28.9288C51.3875 29.1102 51.1818 29.2421 50.9394 29.3246C50.697 29.4071 50.4579 29.45 50.2251 29.45Z" fill="#9CA3AF"/>
<path d="M57.9233 25.5307C57.893 25.2899 57.7829 25.1019 57.5916 24.97C57.4034 24.8347 57.1659 24.7655 56.8773 24.7655C56.6684 24.7655 56.4882 24.8017 56.3351 24.871C56.1852 24.937 56.0688 25.0293 55.9843 25.1481C55.903 25.2635 55.8631 25.3922 55.8631 25.5373C55.8631 25.661 55.8902 25.7682 55.9461 25.8606C56.0051 25.9497 56.08 26.0239 56.1693 26.0849C56.2618 26.1476 56.3622 26.197 56.4691 26.2366C56.5743 26.2762 56.6795 26.3092 56.7816 26.3356L57.2727 26.4675C57.4337 26.5071 57.598 26.5632 57.7638 26.6325C57.9328 26.7034 58.0907 26.7957 58.2358 26.9095C58.3793 27.0201 58.4973 27.1602 58.5866 27.3318C58.6759 27.5 58.7205 27.6996 58.7205 27.9321C58.7205 28.2323 58.6456 28.4962 58.4973 28.7238C58.3522 28.953 58.1401 29.1328 57.8595 29.2648C57.582 29.3967 57.2488 29.4627 56.8581 29.4627C56.4786 29.4627 56.1517 29.4 55.8759 29.278C55.5985 29.1559 55.3816 28.9794 55.2253 28.7502C55.0723 28.5226 54.9862 28.2488 54.9702 27.9321H55.7292C55.7451 28.1218 55.8057 28.2801 55.9078 28.4071C56.013 28.5308 56.147 28.6232 56.3096 28.6842C56.4754 28.7419 56.6556 28.77 56.8517 28.77C57.0638 28.77 57.2552 28.7353 57.4258 28.6644C57.5948 28.5951 57.7271 28.4978 57.8212 28.3741C57.9185 28.2471 57.9679 28.097 57.9679 27.9255C57.9679 27.7721 57.9248 27.6468 57.8403 27.5495C57.7542 27.4489 57.6394 27.3681 57.4959 27.3054C57.3556 27.2394 57.193 27.1833 57.0112 27.1339L56.418 26.9623C56.013 26.8485 55.6925 26.6819 55.4549 26.4609C55.2206 26.2416 55.1042 25.9497 55.1042 25.5835C55.1042 25.285 55.1823 25.0227 55.3401 24.7984C55.4964 24.5741 55.7101 24.401 55.9779 24.2773C56.249 24.1503 56.5536 24.0859 56.89 24.0859C57.2344 24.0859 57.5358 24.1486 57.7957 24.2707C58.0588 24.3944 58.2645 24.5659 58.4144 24.7852C58.5674 25.0013 58.6472 25.2503 58.6567 25.5307H57.9233Z" fill="#9CA3AF"/>
<path d="M61.2 29.4562C60.8301 29.4562 60.508 29.3754 60.2369 29.2121C59.969 29.0455 59.7617 28.8097 59.6182 28.5062C59.4731 28.2027 59.4014 27.8498 59.4014 27.4441C59.4014 27.0449 59.4731 26.692 59.6182 26.3885C59.7617 26.0817 59.9658 25.8409 60.2305 25.6694C60.4936 25.4979 60.7998 25.4121 61.149 25.4121C61.3658 25.4121 61.5731 25.45 61.774 25.5243C61.9733 25.5952 62.1519 25.709 62.3098 25.8673C62.4708 26.0224 62.5968 26.2236 62.6861 26.4743C62.7785 26.7217 62.8264 27.0218 62.8264 27.3781V27.6486H59.8159V27.0746H62.1057C62.1057 26.8767 62.0642 26.7019 61.9845 26.5468C61.9079 26.3885 61.7963 26.2664 61.6528 26.1774C61.5125 26.085 61.3467 26.0388 61.1553 26.0388C60.9465 26.0388 60.7663 26.0916 60.6132 26.1972C60.4601 26.3027 60.3405 26.4396 60.256 26.6062C60.1747 26.7744 60.1348 26.9542 60.1348 27.1472V27.5958C60.1348 27.8564 60.1795 28.0774 60.2688 28.2621C60.3581 28.4468 60.4824 28.5887 60.6451 28.6843C60.8061 28.7816 60.9959 28.8295 61.2127 28.8295C61.3483 28.8295 61.4742 28.8097 61.589 28.7701C61.707 28.7272 61.8075 28.6629 61.8888 28.5788C61.9733 28.4963 62.0371 28.3924 62.0801 28.2687L62.7817 28.4007C62.7259 28.6118 62.6255 28.7965 62.482 28.9548C62.3369 29.1132 62.1567 29.2368 61.9398 29.3243C61.723 29.4117 61.4758 29.4562 61.2 29.4562Z" fill="#9CA3AF"/>
<path d="M65.2421 29.4562C64.8721 29.4562 64.5548 29.3704 64.2917 29.1989C64.027 29.0274 63.8261 28.7899 63.6858 28.4864C63.5455 28.1796 63.4753 27.83 63.4753 27.4375C63.4753 27.0416 63.5471 26.692 63.6922 26.3885C63.8357 26.0817 64.0398 25.8409 64.3045 25.6694C64.5676 25.4979 64.8753 25.4121 65.2293 25.4121C65.5179 25.4121 65.7746 25.4682 66.0011 25.577C66.2259 25.6875 66.4061 25.8409 66.5432 26.0388C66.6835 26.2335 66.7664 26.4611 66.7919 26.725H66.0776C66.0393 26.5402 65.95 26.3819 65.8097 26.25C65.6694 26.118 65.4796 26.052 65.2421 26.052C65.038 26.052 64.8594 26.1098 64.7063 26.2236C64.5532 26.3341 64.4336 26.4924 64.3491 26.6986C64.263 26.9014 64.2216 27.1406 64.2216 27.4177C64.2216 27.7046 64.2614 27.9504 64.3428 28.1566C64.4273 28.3644 64.5469 28.5243 64.6999 28.6382C64.853 28.7536 65.0332 28.8097 65.2421 28.8097C65.3824 28.8097 65.5099 28.7833 65.6247 28.7305C65.7396 28.6777 65.8352 28.6019 65.9118 28.4996C65.9915 28.399 66.0473 28.2786 66.0776 28.1368H66.7919C66.7664 28.3924 66.6867 28.6184 66.5559 28.8163C66.4236 29.0142 66.245 29.1709 66.0202 29.2847C65.7985 29.3985 65.5386 29.4562 65.2421 29.4562Z" fill="#9CA3AF"/>
<path d="M69.9843 27.7541V25.4648H70.7242V29.377H69.9971V28.6975H69.9588C69.8695 28.9086 69.7292 29.0851 69.5379 29.2253C69.3465 29.3622 69.1073 29.4298 68.8235 29.4298C68.5812 29.4298 68.3659 29.3753 68.1793 29.2648C67.996 29.151 67.8509 28.9845 67.7456 28.7635C67.6388 28.5441 67.5862 28.2736 67.5862 27.952V25.4648H68.3197V27.8596C68.3197 28.1285 68.3898 28.3412 68.5301 28.4996C68.6736 28.6579 68.8618 28.7371 69.0914 28.7371C69.2317 28.7371 69.3688 28.7024 69.506 28.6315C69.6415 28.5573 69.7547 28.4468 69.844 28.3016C69.9365 28.1565 69.9843 27.9751 69.9843 27.7541Z" fill="#9CA3AF"/>
<path d="M71.7092 29.3778V25.4656H72.4172V26.0858H72.4618C72.5288 25.8747 72.65 25.7097 72.8254 25.591C72.9992 25.4689 73.1969 25.4062 73.4185 25.4062C73.4648 25.4062 73.5206 25.4095 73.5844 25.4128C73.6482 25.4128 73.696 25.4161 73.7311 25.4194V26.1517C73.7008 26.1435 73.6482 26.1352 73.5716 26.1253C73.4983 26.1122 73.4249 26.1056 73.3484 26.1056C73.173 26.1056 73.0183 26.1435 72.8828 26.2177C72.7457 26.2936 72.6372 26.3991 72.5575 26.5344C72.481 26.6663 72.4427 26.8181 72.4427 26.9896V29.3778H71.7092Z" fill="#9CA3AF"/>
<path d="M76.0005 29.4562C75.6306 29.4562 75.3085 29.3754 75.0374 29.2121C74.7696 29.0455 74.5623 28.8097 74.4188 28.5062C74.2737 28.2027 74.2019 27.8498 74.2019 27.4441C74.2019 27.0449 74.2737 26.692 74.4188 26.3885C74.5623 26.0817 74.7664 25.8409 75.0311 25.6694C75.2941 25.4979 75.6003 25.4121 75.9495 25.4121C76.1663 25.4121 76.3736 25.45 76.5745 25.5243C76.7739 25.5952 76.9524 25.709 77.1103 25.8673C77.2713 26.0224 77.3973 26.2236 77.4866 26.4743C77.5791 26.7217 77.6269 27.0218 77.6269 27.3781V27.6486H74.6165V27.0746H76.9062C76.9062 26.8767 76.8647 26.7019 76.785 26.5468C76.7085 26.3885 76.5969 26.2664 76.4534 26.1774C76.313 26.085 76.1472 26.0388 75.9559 26.0388C75.747 26.0388 75.5668 26.0916 75.4137 26.1972C75.2607 26.3027 75.1411 26.4396 75.0566 26.6062C74.9752 26.7744 74.9354 26.9542 74.9354 27.1472V27.5958C74.9354 27.8564 74.98 28.0774 75.0693 28.2621C75.1586 28.4468 75.283 28.5887 75.4456 28.6843C75.6067 28.7816 75.7964 28.8295 76.0133 28.8295C76.1488 28.8295 76.2748 28.8097 76.3896 28.7701C76.5076 28.7272 76.608 28.6629 76.6893 28.5788C76.7739 28.4963 76.8376 28.3924 76.8807 28.2687L77.5823 28.4007C77.5265 28.6118 77.426 28.7965 77.2825 28.9548C77.1374 29.1132 76.9572 29.2368 76.7404 29.3243C76.5235 29.4117 76.2764 29.4562 76.0005 29.4562Z" fill="#9CA3AF"/>
<path d="M80.343 29.3776V24.1592H82.1416C82.5323 24.1592 82.8576 24.2301 83.1175 24.3703C83.3758 24.5072 83.5703 24.6985 83.6979 24.9442C83.8254 25.1916 83.8892 25.4753 83.8892 25.7953C83.8892 26.112 83.8222 26.394 83.6915 26.6397C83.5639 26.8822 83.3694 27.0719 83.1111 27.2071C82.856 27.339 82.5323 27.405 82.1416 27.405H80.7767V26.7255H82.0715C82.317 26.7255 82.5179 26.6909 82.671 26.6199C82.8273 26.5457 82.9421 26.4385 83.0154 26.2967C83.0872 26.1565 83.1238 25.9899 83.1238 25.7953C83.1238 25.5974 83.0856 25.4258 83.009 25.2807C82.9357 25.1356 82.8209 25.0267 82.6646 24.9508C82.5116 24.8717 82.3091 24.8321 82.0587 24.8321H81.102V29.3776H80.343ZM82.8368 27.0224L84.0806 29.3776H83.2131L81.9886 27.0224H82.8368Z" fill="#9CA3AF"/>
<path d="M86.385 29.4562C86.0151 29.4562 85.693 29.3754 85.422 29.2121C85.1541 29.0455 84.9468 28.8097 84.8033 28.5062C84.6582 28.2027 84.5864 27.8498 84.5864 27.4441C84.5864 27.0449 84.6582 26.692 84.8033 26.3885C84.9468 26.0817 85.1509 25.8409 85.4156 25.6694C85.6787 25.4979 85.9848 25.4121 86.334 25.4121C86.5509 25.4121 86.7582 25.45 86.9591 25.5243C87.1584 25.5952 87.337 25.709 87.4948 25.8673C87.6559 26.0224 87.7818 26.2236 87.8711 26.4743C87.9636 26.7217 88.0114 27.0218 88.0114 27.3781V27.6486H85.001V27.0746H87.2907C87.2907 26.8767 87.2493 26.7019 87.1695 26.5468C87.093 26.3885 86.9814 26.2664 86.8379 26.1774C86.6976 26.085 86.5317 26.0388 86.3404 26.0388C86.1315 26.0388 85.9513 26.0916 85.7983 26.1972C85.6452 26.3027 85.5256 26.4396 85.4411 26.6062C85.3598 26.7744 85.3199 26.9542 85.3199 27.1472V27.5958C85.3199 27.8564 85.3645 28.0774 85.4538 28.2621C85.5431 28.4468 85.6675 28.5887 85.8301 28.6843C85.9912 28.7816 86.1809 28.8295 86.3978 28.8295C86.5333 28.8295 86.6593 28.8097 86.7741 28.7701C86.8921 28.7272 86.9925 28.6629 87.0739 28.5788C87.1584 28.4963 87.2222 28.3924 87.2652 28.2687L87.9668 28.4007C87.911 28.6118 87.8105 28.7965 87.667 28.9548C87.5219 29.1132 87.3417 29.2368 87.1249 29.3243C86.908 29.4117 86.6609 29.4562 86.385 29.4562Z" fill="#9CA3AF"/>
<path d="M90.4269 29.4562C90.057 29.4562 89.7396 29.3704 89.4765 29.1989C89.2119 29.0274 89.0109 28.7899 88.8706 28.4864C88.7303 28.1796 88.6602 27.83 88.6602 27.4375C88.6602 27.0416 88.7319 26.692 88.877 26.3885C89.0205 26.0817 89.2246 25.8409 89.4893 25.6694C89.7524 25.4979 90.0601 25.4121 90.4141 25.4121C90.7027 25.4121 90.9594 25.4682 91.1859 25.577C91.4107 25.6875 91.5909 25.8409 91.728 26.0388C91.8683 26.2335 91.9512 26.4611 91.9767 26.725H91.2624C91.2241 26.5402 91.1348 26.3819 90.9945 26.25C90.8542 26.118 90.6645 26.052 90.4269 26.052C90.2228 26.052 90.0442 26.1098 89.8911 26.2236C89.738 26.3341 89.6185 26.4924 89.5339 26.6986C89.4478 26.9014 89.4064 27.1406 89.4064 27.4177C89.4064 27.7046 89.4463 27.9504 89.5276 28.1566C89.6121 28.3644 89.7317 28.5243 89.8847 28.6382C90.0378 28.7536 90.218 28.8097 90.4269 28.8097C90.5672 28.8097 90.6948 28.7833 90.8096 28.7305C90.9244 28.6777 91.02 28.6019 91.0966 28.4996C91.1763 28.399 91.2321 28.2786 91.2624 28.1368H91.9767C91.9512 28.3924 91.8715 28.6184 91.7408 28.8163C91.6084 29.0142 91.4298 29.1709 91.205 29.2847C90.9834 29.3985 90.7235 29.4562 90.4269 29.4562Z" fill="#9CA3AF"/>
<path d="M93.5045 27.0554V29.3776H92.771V24.1592H93.4981V26.0988H93.5427C93.632 25.8877 93.7676 25.7211 93.9509 25.5974C94.1327 25.4753 94.3719 25.4127 94.6653 25.4127C94.9236 25.4127 95.15 25.4687 95.3414 25.5776C95.5359 25.6881 95.6874 25.853 95.7942 26.0724C95.9042 26.2884 95.96 26.5606 95.96 26.8904V29.3776H95.2202V26.9762C95.2202 26.6909 95.1468 26.4682 95.0033 26.3099C94.863 26.1515 94.6653 26.0724 94.4102 26.0724C94.2348 26.0724 94.0801 26.112 93.9446 26.1911C93.8074 26.267 93.699 26.3758 93.6193 26.521C93.5427 26.6661 93.5045 26.8442 93.5045 27.0554Z" fill="#9CA3AF"/>
<path d="M98.0429 29.4628C97.8038 29.4628 97.5869 29.4166 97.3924 29.3243C97.201 29.2319 97.048 29.0983 96.9332 28.9218C96.8215 28.747 96.7673 28.5293 96.7673 28.2687C96.7673 28.0493 96.8072 27.8696 96.8885 27.7277C96.9682 27.5826 97.0799 27.4688 97.2202 27.3847C97.3605 27.3022 97.5152 27.2395 97.6858 27.2C97.8596 27.1571 98.0366 27.1241 98.2152 27.101C98.4448 27.0746 98.6297 27.0532 98.77 27.035C98.9104 27.0185 99.0124 26.9888 99.0762 26.9493C99.14 26.9064 99.1719 26.8371 99.1719 26.7447V26.7316C99.1719 26.5072 99.1113 26.3341 98.9933 26.2104C98.8737 26.0883 98.6951 26.0257 98.4575 26.0257C98.2056 26.0257 98.0079 26.0834 97.8644 26.1972C97.724 26.3126 97.6284 26.438 97.5773 26.5732L96.8821 26.4083C96.9619 26.1708 97.0815 25.9795 97.2393 25.8343C97.4004 25.6859 97.5837 25.577 97.7878 25.5111C97.9951 25.4451 98.2152 25.4121 98.4448 25.4121C98.5978 25.4121 98.7573 25.4303 98.9231 25.4649C99.0921 25.5012 99.2516 25.5671 99.4015 25.6628C99.5498 25.7601 99.6709 25.8987 99.765 26.0784C99.8623 26.2599 99.9117 26.4924 99.9117 26.7777V29.377H99.191V28.8427H99.1655C99.1176 28.94 99.0459 29.0373 98.9486 29.1329C98.8546 29.2303 98.7318 29.3094 98.5787 29.3704C98.4288 29.4315 98.2502 29.4628 98.0429 29.4628ZM98.2024 28.8493C98.4065 28.8493 98.5803 28.8097 98.7254 28.7305C98.8737 28.648 98.9869 28.5375 99.0634 28.4007C99.14 28.2654 99.1782 28.1203 99.1782 27.9652V27.4572C99.1527 27.4886 99.1017 27.515 99.0252 27.5364C98.9486 27.5595 98.8625 27.5793 98.77 27.5958C98.676 27.609 98.5819 27.6222 98.4894 27.6354C98.4001 27.6486 98.3252 27.6601 98.2662 27.6684C98.1211 27.6865 97.9887 27.7178 97.8707 27.7607C97.7559 27.8053 97.6619 27.8696 97.5901 27.952C97.5215 28.0362 97.4881 28.1467 97.4881 28.2819C97.4881 28.4716 97.5534 28.6151 97.6858 28.7107C97.8213 28.8031 97.9935 28.8493 98.2024 28.8493Z" fill="#9CA3AF"/>
<path d="M100.894 29.3778V25.4656H101.602V26.0858H101.647C101.714 25.8747 101.835 25.7097 102.01 25.591C102.184 25.4689 102.382 25.4062 102.604 25.4062C102.65 25.4062 102.706 25.4095 102.769 25.4128C102.833 25.4128 102.881 25.4161 102.916 25.4194V26.1517C102.886 26.1435 102.833 26.1352 102.757 26.1253C102.683 26.1122 102.61 26.1056 102.533 26.1056C102.358 26.1056 102.203 26.1435 102.068 26.2177C101.931 26.2936 101.822 26.3991 101.743 26.5344C101.666 26.6663 101.628 26.8181 101.628 26.9896V29.3778H100.894Z" fill="#9CA3AF"/>
<path d="M105.141 30.9274C104.843 30.9274 104.586 30.8845 104.369 30.802C104.152 30.7229 103.975 30.614 103.84 30.4788C103.703 30.3468 103.601 30.1984 103.534 30.0368L104.165 29.7729C104.211 29.8471 104.27 29.9263 104.344 30.0104C104.42 30.0928 104.522 30.1638 104.65 30.2215C104.781 30.2825 104.95 30.3138 105.154 30.3138C105.43 30.3138 105.659 30.2429 105.842 30.1027C106.024 29.9609 106.117 29.7399 106.117 29.4364V28.6645H106.072C106.024 28.7487 105.959 28.841 105.874 28.9416C105.793 29.0439 105.68 29.1313 105.536 29.2055C105.391 29.2814 105.205 29.3177 104.975 29.3177C104.677 29.3177 104.407 29.2451 104.165 29.1C103.926 28.9548 103.738 28.7421 103.597 28.46C103.46 28.1747 103.393 27.8234 103.393 27.4045C103.393 26.9872 103.46 26.6309 103.597 26.3357C103.733 26.0372 103.919 25.8079 104.159 25.6496C104.401 25.4913 104.675 25.4121 104.981 25.4121C105.214 25.4121 105.404 25.455 105.549 25.5375C105.693 25.6166 105.806 25.709 105.887 25.8145C105.967 25.9201 106.031 26.0158 106.078 26.0982H106.129V25.4649H106.85V29.4628C106.85 29.8009 106.774 30.078 106.621 30.2941C106.471 30.5085 106.267 30.6668 106.008 30.7691C105.753 30.8746 105.463 30.9274 105.141 30.9274ZM105.135 28.6843C105.347 28.6843 105.525 28.6349 105.67 28.5326C105.819 28.432 105.932 28.2852 106.008 28.0906C106.085 27.8976 106.123 27.6651 106.123 27.3913C106.123 27.1323 106.085 26.9014 106.008 26.6986C105.935 26.4974 105.825 26.3407 105.677 26.2302C105.532 26.1164 105.351 26.0586 105.135 26.0586C104.913 26.0586 104.728 26.118 104.58 26.2368C104.435 26.3555 104.325 26.5171 104.248 26.7184C104.171 26.9212 104.133 27.1455 104.133 27.3913C104.133 27.6519 104.171 27.8778 104.248 28.0708C104.325 28.2654 104.436 28.4171 104.586 28.526C104.734 28.6316 104.918 28.6843 105.135 28.6843Z" fill="#9CA3AF"/>
<path d="M109.467 29.4562C109.097 29.4562 108.775 29.3754 108.503 29.2121C108.236 29.0455 108.028 28.8097 107.885 28.5062C107.74 28.2027 107.668 27.8498 107.668 27.4441C107.668 27.0449 107.74 26.692 107.885 26.3885C108.028 26.0817 108.232 25.8409 108.497 25.6694C108.76 25.4979 109.066 25.4121 109.416 25.4121C109.632 25.4121 109.84 25.45 110.041 25.5243C110.24 25.5952 110.419 25.709 110.576 25.8673C110.737 26.0224 110.863 26.2236 110.953 26.4743C111.045 26.7217 111.093 27.0218 111.093 27.3781V27.6486H108.083V27.0746H110.372C110.372 26.8767 110.331 26.7019 110.251 26.5468C110.175 26.3885 110.063 26.2664 109.919 26.1774C109.779 26.085 109.613 26.0388 109.422 26.0388C109.213 26.0388 109.033 26.0916 108.88 26.1972C108.727 26.3027 108.607 26.4396 108.523 26.6062C108.441 26.7744 108.401 26.9542 108.401 27.1472V27.5958C108.401 27.8564 108.446 28.0774 108.535 28.2621C108.625 28.4468 108.749 28.5887 108.912 28.6843C109.073 28.7816 109.262 28.8295 109.479 28.8295C109.615 28.8295 109.741 28.8097 109.856 28.7701C109.974 28.7272 110.074 28.6629 110.155 28.5788C110.24 28.4963 110.304 28.3924 110.347 28.2687L111.048 28.4007C110.993 28.6118 110.892 28.7965 110.749 28.9548C110.603 29.1132 110.423 29.2368 110.206 29.3243C109.99 29.4117 109.742 29.4562 109.467 29.4562Z" fill="#9CA3AF"/>
<path d="M3.76749 11.4287L10.0196 19.9886C10.1822 20.2113 10.3337 20.4422 10.4756 20.6797C10.6159 20.9172 10.7451 21.1629 10.8615 21.4136C10.9795 21.6643 11.0847 21.9216 11.1788 22.1822C11.2713 22.4444 11.3526 22.71 11.4196 22.9804C11.4881 23.2509 11.5423 23.5231 11.5838 23.7985C11.6269 24.0739 11.6556 24.351 11.6715 24.6298C11.6874 24.9085 11.689 25.1872 11.6779 25.466C11.6683 25.7447 11.6444 26.0218 11.6061 26.2988C11.5694 26.5759 11.52 26.8497 11.4562 27.1202C11.3925 27.3907 11.3175 27.6595 11.2282 27.9218C11.1405 28.1857 11.0401 28.4446 10.9269 28.6969C10.8136 28.9509 10.6893 29.1983 10.5521 29.4391C10.415 29.6799 10.2683 29.9125 10.1089 30.1384C9.95102 30.3644 9.782 30.5804 9.60182 30.7899C9.42323 30.9977 9.23508 31.1973 9.03577 31.3853C8.83805 31.575 8.63235 31.7548 8.41709 31.923L2.16501 23.3631C2.00237 23.1404 1.85089 22.9095 1.71057 22.672C1.56866 22.4345 1.4395 22.1888 1.3231 21.9381C1.20511 21.6874 1.09987 21.4301 1.00739 21.1679C0.913313 20.9073 0.833587 20.6401 0.765023 20.3712C0.696459 20.1008 0.642245 19.8286 0.600788 19.5532C0.557736 19.2761 0.529035 18.999 0.51309 18.7219C0.498739 18.4432 0.49555 18.1645 0.506712 17.8857C0.517874 17.607 0.541791 17.3283 0.578465 17.0528C0.615139 16.7758 0.666163 16.502 0.728349 16.2315C0.79213 15.9594 0.867072 15.6922 0.956365 15.4283C1.04406 15.166 1.14611 14.9071 1.25773 14.6531C1.37094 14.4008 1.4969 14.1534 1.63244 13.9126C1.76957 13.6718 1.91626 13.4392 2.07571 13.2133C2.23357 12.9873 2.40259 12.7712 2.58277 12.5618C2.76135 12.354 2.94951 12.1544 3.14882 11.9647C3.34654 11.7767 3.55383 11.5969 3.76749 11.4287Z" fill="#222550"/>
<path d="M8.38043 0.65332L14.6325 9.21322C14.7952 9.43587 14.9466 9.66513 15.087 9.90428C15.2273 10.1418 15.3564 10.3875 15.4744 10.6382C15.5924 10.8889 15.6976 11.1462 15.7901 11.4084C15.8842 11.669 15.9639 11.9362 16.0325 12.2067C16.0995 12.4755 16.1553 12.7493 16.1967 13.0248C16.2382 13.3002 16.2685 13.5773 16.2828 13.856C16.2988 14.1347 16.302 14.4135 16.2908 14.6922C16.2796 14.9709 16.2557 15.2497 16.2191 15.5251C16.1808 15.8022 16.1314 16.076 16.0676 16.3465C16.0038 16.6186 15.9289 16.8858 15.8396 17.1497C15.7519 17.4136 15.6498 17.6725 15.5366 17.9248C15.4234 18.1788 15.299 18.4262 15.1619 18.667C15.0264 18.9062 14.8781 19.1404 14.7186 19.3663C14.5608 19.5906 14.3917 19.8084 14.2116 20.0162C14.033 20.2256 13.8432 20.4235 13.6455 20.6132C13.4462 20.8029 13.2405 20.981 13.0252 21.1492L6.77316 12.5893C6.61052 12.3667 6.45904 12.1374 6.31713 11.8983C6.17681 11.6608 6.04765 11.4167 5.92966 11.1643C5.81326 10.9137 5.70802 10.6564 5.61395 10.3958C5.52146 10.1335 5.44014 9.86634 5.37317 9.5975C5.30461 9.32702 5.2504 9.05323 5.20734 8.7778C5.16589 8.50237 5.13719 8.22528 5.12124 7.94655C5.1053 7.66782 5.1037 7.38908 5.11486 7.11035C5.12443 6.83162 5.14994 6.55289 5.18662 6.27745C5.22329 6.00037 5.27431 5.72658 5.3365 5.4561C5.40028 5.18396 5.47682 4.91678 5.56452 4.65289C5.65381 4.389 5.75426 4.13171 5.86747 3.87771C5.98068 3.62372 6.10665 3.37797 6.24218 3.13717C6.37931 2.89638 6.5276 2.66217 6.68546 2.43787C6.84491 2.21191 7.01393 1.99421 7.19251 1.78639C7.37269 1.57693 7.56085 1.37901 7.76016 1.18934C7.95788 0.999674 8.16517 0.821549 8.38043 0.65332Z" fill="#0AD97C"/>
</svg>
