<svg width="54" height="54" viewBox="0 0 54 54" fill="none" xmlns="http://www.w3.org/2000/svg">
<g filter="url(#filter0_d_1843_2746)">
<rect x="6" y="6" width="48" height="48" rx="6" fill="#05E27E"/>
<path d="M21.0549 29H23C24.1046 29 25 29.8954 25 31V32C25 33.1046 25.8954 34 27 34C28.1046 34 29 34.8954 29 36V38.9451M26 21.9355V23.5C26 24.8807 27.1193 26 28.5 26H29C30.1046 26 31 26.8954 31 28C31 29.1046 31.8954 30 33 30C34.1046 30 35 29.1046 35 28C35 26.8954 35.8954 26 37 26L38.0645 26M33 38.4879V36C33 34.8954 33.8954 34 35 34H38.0645M39 30C39 34.9706 34.9706 39 30 39C25.0294 39 21 34.9706 21 30C21 25.0294 25.0294 21 30 21C34.9706 21 39 25.0294 39 30Z" stroke="#1F234C" stroke-width="2" stroke-linecap="round" stroke-linejoin="round"/>
</g>
<defs>
<filter id="filter0_d_1843_2746" x="0" y="0" width="54" height="54" filterUnits="userSpaceOnUse" color-interpolation-filters="sRGB">
<feFlood flood-opacity="0" result="BackgroundImageFix"/>
<feColorMatrix in="SourceAlpha" type="matrix" values="0 0 0 0 0 0 0 0 0 0 0 0 0 0 0 0 0 0 127 0" result="hardAlpha"/>
<feOffset dx="-6" dy="-6"/>
<feComposite in2="hardAlpha" operator="out"/>
<feColorMatrix type="matrix" values="0 0 0 0 0.109804 0 0 0 0 0.47451 0 0 0 0 0.309804 0 0 0 1 0"/>
<feBlend mode="normal" in2="BackgroundImageFix" result="effect1_dropShadow_1843_2746"/>
<feBlend mode="normal" in="SourceGraphic" in2="effect1_dropShadow_1843_2746" result="shape"/>
</filter>
</defs>
</svg>
