<svg width="180" height="57" viewBox="0 0 180 57" fill="none" xmlns="http://www.w3.org/2000/svg">
<path d="M38.9995 31.6422V9.875H48.2138C50.3172 9.875 51.9879 10.4046 53.2214 11.459C54.4595 12.5157 55.0808 13.9369 55.0808 15.7249C55.0808 16.7355 54.8622 17.6563 54.4273 18.4847C53.9969 19.3155 53.3894 19.969 52.6046 20.4476C53.585 20.9019 54.3467 21.5749 54.8875 22.4689C55.426 23.3629 55.6976 24.3905 55.6976 25.5493C55.6976 26.7737 55.403 27.8426 54.8139 28.7561C54.2247 29.6647 53.4055 30.374 52.3561 30.8842C51.3067 31.3895 50.0847 31.6422 48.6925 31.6422H38.9995ZM43.6205 27.726H47.9837C48.9042 27.726 49.6176 27.5001 50.1285 27.0458C50.644 26.5866 50.9017 25.9429 50.9017 25.112C50.9017 24.2836 50.644 23.6422 50.1285 23.188C49.6176 22.7288 48.9042 22.498 47.9837 22.498H43.6205V27.726ZM43.6205 18.7373H47.5142C48.4163 18.7373 49.1067 18.5211 49.5854 18.0863C50.0686 17.6538 50.3126 17.0416 50.3126 16.2497C50.3126 15.4601 50.0686 14.8552 49.5854 14.4325C49.1067 14.0049 48.4163 13.7911 47.5142 13.7911H43.6205V18.7373Z" fill="#222550"/>
<path d="M66.3604 32.0779C64.7081 32.0779 63.2491 31.7135 61.9788 30.9895C60.7131 30.2656 59.7281 29.255 59.0239 27.9577C58.3174 26.6628 57.9653 25.1639 57.9653 23.4585C57.9653 21.7628 58.3197 20.2711 59.0331 18.9884C59.7511 17.7009 60.7407 16.6927 62.0064 15.9663C63.2767 15.2423 64.7449 14.8779 66.4156 14.8779C68.183 14.8779 69.7064 15.2934 70.9905 16.1218C72.2793 16.9526 73.2596 18.1139 73.9362 19.6103C74.6173 21.102 74.9073 22.8414 74.8107 24.8286H62.4114C62.6254 25.951 63.0949 26.8061 63.8198 27.3941C64.5493 27.9844 65.4238 28.2783 66.4432 28.2783C67.1911 28.2783 67.8746 28.1302 68.496 27.8313C69.115 27.535 69.6098 27.1122 69.978 26.5681H74.5161C73.8464 28.2929 72.7947 29.6437 71.3587 30.6203C69.9273 31.592 68.2612 32.0779 66.3604 32.0779ZM62.439 21.8454H70.4843C70.2265 20.8493 69.7479 20.0646 69.0483 19.4937C68.3533 18.9253 67.4857 18.6386 66.4432 18.6386C65.4606 18.6386 64.6114 18.9253 63.8934 19.4937C63.18 20.0646 62.6967 20.8493 62.439 21.8454Z" fill="#222550"/>
<path d="M78.1641 31.6418V15.3164H81.4963L82.0854 17.4931C82.594 16.7303 83.22 16.1764 83.9633 15.8314C84.7112 15.4889 85.657 15.3164 86.7984 15.3164H88.4738V19.6115H86.7708C85.4936 19.6115 84.488 19.9759 83.7516 20.6999C83.0151 21.4263 82.6469 22.6701 82.6469 24.4314V31.6418H78.1641Z" fill="#222550"/>
<path d="M99.0249 32.0779C97.3726 32.0779 95.9136 31.7135 94.6433 30.9895C93.3776 30.2656 92.3927 29.255 91.6885 27.9577C90.982 26.6628 90.6299 25.1639 90.6299 23.4585C90.6299 21.7628 90.9843 20.2711 91.6977 18.9884C92.4157 17.7009 93.4052 16.6927 94.6709 15.9663C95.9412 15.2423 97.4094 14.8779 99.0802 14.8779C100.848 14.8779 102.371 15.2934 103.655 16.1218C104.944 16.9526 105.924 18.1139 106.601 19.6103C107.282 21.102 107.572 22.8414 107.475 24.8286H95.0759C95.29 25.951 95.7594 26.8061 96.4843 27.3941C97.2138 27.9844 98.0883 28.2783 99.1078 28.2783C99.8557 28.2783 100.539 28.1302 101.161 27.8313C101.78 27.535 102.274 27.1122 102.643 26.5681H107.181C106.511 28.2929 105.459 29.6437 104.023 30.6203C102.592 31.592 100.926 32.0779 99.0249 32.0779ZM95.1036 21.8454H103.149C102.891 20.8493 102.412 20.0646 101.713 19.4937C101.018 18.9253 100.15 18.6386 99.1078 18.6386C98.1251 18.6386 97.276 18.9253 96.558 19.4937C95.8446 20.0646 95.3613 20.8493 95.1036 21.8454Z" fill="#222550"/>
<path d="M110.827 31.6419V8.63086H115.31V31.6419H110.827Z" fill="#222550"/>
<path d="M127.383 32.0779C125.671 32.0779 124.161 31.7135 122.854 30.9895C121.552 30.2656 120.534 29.255 119.798 27.9577C119.062 26.6628 118.693 25.1639 118.693 23.4585C118.693 21.7628 119.062 20.2711 119.798 18.9884C120.534 17.7009 121.552 16.6927 122.854 15.9663C124.161 15.2423 125.671 14.8779 127.383 14.8779C129.088 14.8779 130.596 15.2423 131.903 15.9663C133.21 16.6927 134.225 17.7009 134.95 18.9884C135.679 20.2711 136.045 21.7628 136.045 23.4585C136.045 25.1639 135.679 26.6628 134.95 27.9577C134.225 29.255 133.21 30.2656 131.903 30.9895C130.596 31.7135 129.088 32.0779 127.383 32.0779ZM123.112 23.4585C123.112 24.7873 123.508 25.8781 124.299 26.7333C125.096 27.5835 126.124 28.0063 127.383 28.0063C128.639 28.0063 129.661 27.5835 130.448 26.7333C131.233 25.8781 131.627 24.7873 131.627 23.4585C131.627 22.1126 131.233 21.0194 130.448 20.1837C129.661 19.3431 128.639 18.9204 127.383 18.9204C126.124 18.9204 125.096 19.3431 124.299 20.1837C123.508 21.0194 123.112 22.1126 123.112 23.4585Z" fill="#222550"/>
<path d="M144.58 31.9516C142.757 31.9516 141.314 31.5021 140.254 30.6008C139.19 29.702 138.661 28.4605 138.661 26.879C138.661 25.3704 139.135 24.1654 140.088 23.2641C141.038 22.358 142.32 21.9037 143.936 21.9037H149.532V21.1651C149.532 20.3562 149.256 19.7075 148.704 19.2216C148.156 18.7309 147.443 18.4831 146.559 18.4831C145.827 18.4831 145.208 18.6629 144.7 19.0176C144.189 19.3674 143.864 19.8338 143.724 20.4169H139.425C139.701 18.6362 140.461 17.2684 141.708 16.3161C142.953 15.3589 144.557 14.8779 146.522 14.8779C148.842 14.8779 150.655 15.4974 151.962 16.734C153.27 17.9657 153.923 19.6589 153.923 21.8162V31.6406H150.591L150.094 29.7457C148.736 31.2179 146.9 31.9516 144.58 31.9516ZM143.08 26.6944C143.08 27.258 143.31 27.7123 143.77 28.0548C144.23 28.3925 144.842 28.5602 145.611 28.5602C146.734 28.5602 147.664 28.22 148.4 27.5398C149.137 26.8547 149.523 25.9607 149.56 24.8578H145.316C144.647 24.8578 144.106 25.0278 143.696 25.3631C143.284 25.6935 143.08 26.1381 143.08 26.6944Z" fill="#222550"/>
<path d="M164.871 32.0792C163.343 32.0792 161.99 31.7123 160.811 30.9811C159.633 30.2425 158.704 29.2271 158.022 27.9298C157.346 26.6349 157.01 25.1457 157.01 23.4597C157.01 21.7835 157.346 20.3016 158.022 19.0189C158.704 17.7313 159.633 16.7207 160.811 15.987C161.99 15.2485 163.343 14.8792 164.871 14.8792C165.833 14.8792 166.726 15.0323 167.55 15.3359C168.378 15.6347 169.126 16.0526 169.796 16.5895V8.63086H174.269V31.6419H170.937L170.412 29.7761C169.724 30.5025 168.907 31.0685 167.964 31.4767C167.025 31.8775 165.994 32.0792 164.871 32.0792ZM161.428 23.4597C161.428 24.7886 161.824 25.8794 162.616 26.7345C163.412 27.5848 164.441 28.0075 165.699 28.0075C166.956 28.0075 167.978 27.5848 168.765 26.7345C169.549 25.8794 169.943 24.7886 169.943 23.4597C169.943 22.1382 169.549 21.0547 168.765 20.2044C167.978 19.3492 166.956 18.9217 165.699 18.9217C164.441 18.9217 163.412 19.3492 162.616 20.2044C161.824 21.0547 161.428 22.1382 161.428 23.4597Z" fill="#222550"/>
<path d="M40.1385 40.7383V48.5659H39V40.7383H40.1385Z" fill="#434569"/>
<path d="M42.8185 45.0822V48.5656H41.7183V42.6973H42.7802V43.6473H42.8472C42.9739 43.3381 43.1772 43.0907 43.4595 42.9051C43.7393 42.7146 44.0933 42.6182 44.5214 42.6182C44.9089 42.6182 45.2485 42.7023 45.5355 42.8656C45.8273 43.0313 46.0545 43.2787 46.2148 43.6077C46.3726 43.9393 46.454 44.3475 46.454 44.8348V48.5656H45.3442V44.9635C45.3442 44.5429 45.2342 44.2114 45.0189 43.9739C44.8084 43.7314 44.5166 43.6077 44.1483 43.6077C43.8852 43.6077 43.6556 43.6671 43.4595 43.7859C43.261 43.8997 43.1055 44.063 42.9907 44.2807C42.8759 44.4984 42.8185 44.7656 42.8185 45.0822Z" fill="#434569"/>
<path d="M52.1804 44.1223L51.1854 44.3104C51.14 44.1792 51.073 44.0531 50.9845 43.9343C50.8936 43.8156 50.7741 43.7166 50.621 43.6374C50.4679 43.5583 50.2766 43.5187 50.047 43.5187C49.7336 43.5187 49.4729 43.5929 49.2625 43.7364C49.052 43.8824 48.9467 44.0679 48.9467 44.2906C48.9467 44.4885 49.0161 44.6468 49.1572 44.7656C49.2959 44.8843 49.5232 44.9833 49.8365 45.0624L50.7453 45.2801C51.2668 45.4063 51.6566 45.5968 51.9125 45.8541C52.1661 46.1114 52.2952 46.4479 52.2952 46.8635C52.2952 47.2197 52.1948 47.5364 51.9986 47.8135C51.8073 48.0856 51.5346 48.2984 51.1854 48.4567C50.8338 48.6076 50.4296 48.6843 49.9704 48.6843C49.339 48.6843 48.8224 48.5458 48.4205 48.2687C48.0187 47.9867 47.77 47.5834 47.6743 47.0614L48.7458 46.8932C48.808 47.1777 48.942 47.3954 49.1476 47.5463C49.3581 47.6923 49.6308 47.764 49.9704 47.764C50.3268 47.764 50.6138 47.6848 50.8315 47.5265C51.0467 47.3682 51.1567 47.1777 51.1567 46.9525C51.1567 46.7695 51.0898 46.6136 50.9558 46.4874C50.8267 46.3637 50.6305 46.2697 50.3627 46.2104L49.3964 45.9926C48.8654 45.8689 48.4732 45.671 48.2196 45.3989C47.9709 45.1218 47.8465 44.7755 47.8465 44.3598C47.8465 44.011 47.9374 43.7067 48.124 43.4494C48.3153 43.1872 48.5736 42.9818 48.8989 42.8359C49.229 42.6924 49.6093 42.6182 50.0374 42.6182C50.6497 42.6182 51.1304 42.7567 51.482 43.0338C51.8384 43.3059 52.0704 43.6671 52.1804 44.1223Z" fill="#434569"/>
<path d="M56.1578 42.6973V43.6077H53.0581V42.6973H56.1578ZM53.8809 41.2822H54.9907V46.8437C54.9907 47.0614 55.0217 47.2271 55.0863 47.3385C55.1485 47.4523 55.2322 47.5265 55.3351 47.5661C55.4355 47.6057 55.5479 47.6255 55.6699 47.6255C55.7584 47.6255 55.8349 47.6205 55.8995 47.6057C55.9689 47.5933 56.0239 47.5834 56.0622 47.576L56.2631 48.5161C56.1913 48.5433 56.0957 48.568 55.9761 48.5952C55.8613 48.62 55.7178 48.6373 55.5455 48.6447C55.2514 48.6497 54.9763 48.5977 54.7228 48.4864C54.474 48.3676 54.2683 48.1945 54.1105 47.9619C53.9574 47.7244 53.8809 47.4325 53.8809 47.0812V41.2822Z" fill="#434569"/>
<path d="M59.0213 48.6942C58.6626 48.6942 58.3373 48.6249 58.0455 48.4864C57.7585 48.3479 57.5289 48.1475 57.3567 47.8827C57.1892 47.6205 57.1079 47.2939 57.1079 46.9031C57.1079 46.574 57.1677 46.3044 57.2897 46.0916C57.4093 45.8739 57.5767 45.7032 57.7872 45.577C57.9976 45.4533 58.2297 45.3593 58.4856 45.2999C58.7463 45.2356 59.0118 45.1861 59.2796 45.1515C59.6241 45.1119 59.9015 45.0798 60.112 45.0525C60.3224 45.0278 60.4755 44.9833 60.5712 44.9239C60.6669 44.8596 60.7147 44.7557 60.7147 44.6171V44.5973C60.7147 44.2609 60.6238 44.0011 60.4468 43.8156C60.2674 43.6325 59.9996 43.5385 59.6432 43.5385C59.2653 43.5385 58.9687 43.6251 58.7534 43.7958C58.543 43.9689 58.3995 44.157 58.3229 44.3598L57.2801 44.1124C57.3997 43.7562 57.5791 43.4692 57.8159 43.2515C58.0574 43.0288 58.3325 42.8656 58.6386 42.7666C58.9496 42.6676 59.2796 42.6182 59.6241 42.6182C59.8537 42.6182 60.0928 42.6454 60.3416 42.6973C60.5951 42.7518 60.8343 42.8507 61.0591 42.9942C61.2815 43.1402 61.4633 43.348 61.6044 43.6176C61.7503 43.8898 61.8245 44.2386 61.8245 44.6666V48.5656H60.7434V47.764H60.7051C60.6334 47.91 60.5258 48.0559 60.3799 48.1994C60.2387 48.3454 60.0546 48.4641 59.825 48.5557C59.6001 48.6472 59.3323 48.6942 59.0213 48.6942ZM59.2605 47.7739C59.5667 47.7739 59.8274 47.7145 60.045 47.5958C60.2674 47.4721 60.4373 47.3063 60.5521 47.101C60.6669 46.8981 60.7243 46.6804 60.7243 46.4479V45.6859C60.686 45.7329 60.6095 45.7725 60.4947 45.8046C60.3799 45.8393 60.2507 45.8689 60.112 45.8937C59.9709 45.9135 59.8297 45.9333 59.691 45.9531C59.5571 45.9729 59.4447 45.9902 59.3562 46.0025C59.1385 46.0298 58.94 46.0768 58.763 46.1411C58.5908 46.2079 58.4497 46.3044 58.3421 46.4281C58.2392 46.5542 58.189 46.72 58.189 46.9229C58.189 47.2074 58.2871 47.4226 58.4856 47.5661C58.6889 47.7046 58.9472 47.7739 59.2605 47.7739Z" fill="#434569"/>
<path d="M64.3986 45.0822V48.5656H63.2983V42.6973H64.3603V43.6473H64.4273C64.554 43.3381 64.7573 43.0907 65.0395 42.9051C65.3194 42.7146 65.6734 42.6182 66.1015 42.6182C66.489 42.6182 66.8286 42.7023 67.1156 42.8656C67.4074 43.0313 67.6346 43.2787 67.7949 43.6077C67.9527 43.9393 68.034 44.3475 68.034 44.8348V48.5656H66.9243V44.9635C66.9243 44.5429 66.8142 44.2114 66.599 43.9739C66.3885 43.7314 66.0967 43.6077 65.7284 43.6077C65.4653 43.6077 65.2357 43.6671 65.0395 43.7859C64.841 43.8997 64.6856 44.063 64.5708 44.2807C64.456 44.4984 64.3986 44.7656 64.3986 45.0822Z" fill="#434569"/>
<path d="M72.1627 42.6973V43.6077H69.063V42.6973H72.1627ZM69.8858 41.2822H70.9955V46.8437C70.9955 47.0614 71.0266 47.2271 71.0912 47.3385C71.1534 47.4523 71.2371 47.5265 71.34 47.5661C71.4404 47.6057 71.5528 47.6255 71.6748 47.6255C71.7633 47.6255 71.8398 47.6205 71.9044 47.6057C71.9738 47.5933 72.0288 47.5834 72.0671 47.576L72.268 48.5161C72.1962 48.5433 72.1005 48.568 71.9809 48.5952C71.8661 48.62 71.7226 48.6373 71.5504 48.6447C71.2562 48.6497 70.9812 48.5977 70.7277 48.4864C70.4789 48.3676 70.2732 48.1945 70.1154 47.9619C69.9623 47.7244 69.8858 47.4325 69.8858 47.0812V41.2822Z" fill="#434569"/>
<path d="M78.3378 48.6749C77.826 48.6749 77.3907 48.5784 77.0272 48.388C76.6636 48.1975 76.3814 47.9377 76.1853 47.6062C75.9867 47.2771 75.8887 46.9036 75.8887 46.488C75.8887 46.1713 75.9509 45.8893 76.08 45.6369C76.2068 45.387 76.3862 45.157 76.6158 44.9442C76.8454 44.7339 77.1085 44.5236 77.4098 44.3109L78.6249 43.4202C78.8353 43.2768 78.998 43.1283 79.1128 42.9749C79.2276 42.8166 79.285 42.6236 79.285 42.3911C79.285 42.208 79.2084 42.0324 79.0554 41.8666C78.9023 41.6959 78.6966 41.6093 78.4431 41.6093C78.2637 41.6093 78.1082 41.6563 77.9743 41.7479C77.8404 41.8344 77.7351 41.9458 77.6586 42.0843C77.5868 42.2229 77.5533 42.3688 77.5533 42.5197C77.5533 42.6979 77.5964 42.8809 77.6873 43.064C77.783 43.2421 77.9073 43.4277 78.0604 43.6182C78.2135 43.8111 78.3689 44.0115 78.5292 44.2218L82.0499 48.5661H80.7966L77.8882 45.0333C77.6442 44.7314 77.4194 44.4469 77.2089 44.1822C76.9985 43.92 76.8286 43.6528 76.7019 43.3807C76.5727 43.111 76.5105 42.8166 76.5105 42.4999C76.5105 42.1437 76.5895 41.827 76.7497 41.5499C76.9076 41.2679 77.1276 41.0452 77.4098 40.8869C77.6969 40.7286 78.0317 40.6494 78.4144 40.6494C78.8018 40.6494 79.1367 40.7286 79.4189 40.8869C79.6988 41.0452 79.9164 41.2531 80.0695 41.5104C80.2226 41.7676 80.2991 42.0521 80.2991 42.3614C80.2991 42.7325 80.2082 43.059 80.0312 43.3411C79.8518 43.6256 79.6055 43.8854 79.2946 44.1229L77.7734 45.2807C77.472 45.5058 77.2663 45.726 77.1515 45.9437C77.0415 46.1614 76.9889 46.3346 76.9889 46.4583C76.9889 46.6834 77.0415 46.8912 77.1515 47.0817C77.2663 47.2747 77.4218 47.4256 77.6203 47.5369C77.8236 47.6507 78.0628 47.7051 78.3378 47.7051C78.6177 47.7051 78.8927 47.6433 79.1606 47.5171C79.4285 47.3934 79.6701 47.2104 79.8877 46.9729C80.1101 46.7354 80.2847 46.4533 80.4139 46.1218C80.5407 45.7928 80.6052 45.4242 80.6052 45.0135H81.6002C81.6002 45.5157 81.5428 45.9412 81.428 46.29C81.318 46.6413 81.1841 46.9234 81.0262 47.1411C80.8731 47.3588 80.7296 47.527 80.5957 47.6458C80.5502 47.6854 80.5048 47.7299 80.4617 47.7744C80.4235 47.814 80.3804 47.8536 80.3374 47.8932C80.0814 48.1653 79.7729 48.3632 79.4094 48.4869C79.0458 48.6106 78.687 48.6749 78.3378 48.6749Z" fill="#434569"/>
<path d="M89.8846 42.7961C89.8392 42.4349 89.6742 42.1529 89.3871 41.9549C89.1049 41.7521 88.7485 41.6482 88.3156 41.6482C88.0023 41.6482 87.732 41.7026 87.5024 41.8065C87.2776 41.9055 87.103 42.044 86.9762 42.2221C86.8543 42.3953 86.7945 42.5883 86.7945 42.806C86.7945 42.9915 86.8351 43.1523 86.9188 43.2909C87.0073 43.4245 87.1197 43.5358 87.2537 43.6273C87.3924 43.7214 87.5431 43.7956 87.7033 43.8549C87.8612 43.9143 88.0191 43.9638 88.1721 44.0034L88.9088 44.2013C89.1504 44.2607 89.3967 44.3448 89.6455 44.4487C89.899 44.5551 90.1358 44.6936 90.3534 44.8643C90.5687 45.0301 90.7457 45.2404 90.8796 45.4977C91.0136 45.75 91.0805 46.0493 91.0805 46.3982C91.0805 46.8484 90.9681 47.2443 90.7457 47.5857C90.528 47.9296 90.2099 48.1992 89.789 48.3971C89.3728 48.595 88.8729 48.694 88.2869 48.694C87.7177 48.694 87.2274 48.6 86.8136 48.4169C86.3974 48.2339 86.0722 47.9691 85.8378 47.6253C85.6082 47.2839 85.479 46.8732 85.4551 46.3982H86.5936C86.6175 46.6827 86.7084 46.9202 86.8614 47.1107C87.0193 47.2962 87.2202 47.4348 87.4642 47.5263C87.7129 47.6129 87.9832 47.6549 88.2774 47.6549C88.5955 47.6549 88.8825 47.603 89.1384 47.4966C89.3919 47.3927 89.5904 47.2467 89.7316 47.0612C89.8775 46.8707 89.9516 46.6456 89.9516 46.3883C89.9516 46.1582 89.887 45.9702 89.7603 45.8242C89.6311 45.6733 89.4589 45.5521 89.2436 45.4581C89.0332 45.3591 88.7892 45.275 88.5165 45.2008L87.6268 44.9435C87.0193 44.7728 86.5385 44.5229 86.1822 44.1914C85.8306 43.8624 85.656 43.4245 85.656 42.8753C85.656 42.4275 85.7732 42.0341 86.01 41.6977C86.2444 41.3612 86.5649 41.1014 86.9667 40.9159C87.3733 40.7254 87.8301 40.6289 88.3348 40.6289C88.8514 40.6289 89.3034 40.7229 89.6933 40.906C90.0879 41.0915 90.3965 41.3488 90.6213 41.6779C90.8509 42.002 90.9705 42.3755 90.9848 42.7961H89.8846Z" fill="#434569"/>
<path d="M94.7995 48.6843C94.2446 48.6843 93.7614 48.5631 93.3548 48.3182C92.953 48.0683 92.6421 47.7145 92.4268 47.2593C92.2092 46.8041 92.1016 46.2747 92.1016 45.6661C92.1016 45.0674 92.2092 44.538 92.4268 44.0827C92.6421 43.6226 92.9482 43.2614 93.3453 43.0041C93.7399 42.7468 94.1991 42.6182 94.7229 42.6182C95.0482 42.6182 95.3592 42.6751 95.6605 42.7864C95.9595 42.8928 96.2274 43.0635 96.4641 43.301C96.7057 43.5335 96.8947 43.8354 97.0286 44.2114C97.1673 44.5825 97.2391 45.0327 97.2391 45.5671V45.9729H92.7234V45.1119H96.158C96.158 44.815 96.0958 44.5528 95.9762 44.3202C95.8614 44.0827 95.694 43.8997 95.4787 43.7661C95.2683 43.6275 95.0195 43.5583 94.7325 43.5583C94.4192 43.5583 94.1489 43.6374 93.9193 43.7958C93.6897 43.9541 93.5103 44.1594 93.3836 44.4093C93.2616 44.6617 93.2018 44.9313 93.2018 45.2208V45.8937C93.2018 46.2846 93.2687 46.6161 93.4027 46.8932C93.5366 47.1702 93.7232 47.383 93.9671 47.5265C94.2087 47.6725 94.4933 47.7442 94.8186 47.7442C95.0219 47.7442 95.2109 47.7145 95.3831 47.6551C95.5601 47.5908 95.7107 47.4943 95.8327 47.3682C95.9595 47.2445 96.0552 47.0886 96.1197 46.9031L97.1721 47.101C97.0884 47.4176 96.9377 47.6947 96.7225 47.9322C96.5048 48.1697 96.2345 48.3553 95.9093 48.4864C95.584 48.6175 95.2133 48.6843 94.7995 48.6843Z" fill="#434569"/>
<path d="M100.863 48.6843C100.308 48.6843 99.8321 48.5557 99.4375 48.2984C99.0404 48.0411 98.7391 47.6848 98.5286 47.2296C98.3181 46.7695 98.2129 46.245 98.2129 45.6562C98.2129 45.0624 98.3205 44.538 98.5382 44.0827C98.7534 43.6226 99.0596 43.2614 99.4566 43.0041C99.8513 42.7468 100.313 42.6182 100.844 42.6182C101.277 42.6182 101.662 42.7023 102.001 42.8656C102.339 43.0313 102.609 43.2614 102.815 43.5583C103.025 43.8502 103.15 44.1916 103.188 44.5874H102.116C102.059 44.3104 101.925 44.0729 101.714 43.8749C101.504 43.677 101.219 43.5781 100.863 43.5781C100.557 43.5781 100.289 43.6646 100.059 43.8354C99.8297 44.0011 99.6503 44.2386 99.5236 44.5479C99.3944 44.8521 99.3322 45.2109 99.3322 45.6265C99.3322 46.057 99.392 46.4256 99.514 46.7348C99.6408 47.0465 99.8202 47.2865 100.05 47.4572C100.279 47.6304 100.55 47.7145 100.863 47.7145C101.073 47.7145 101.265 47.6749 101.437 47.5958C101.609 47.5166 101.753 47.4028 101.868 47.2494C101.987 47.0985 102.071 46.9179 102.116 46.7051H103.188C103.15 47.0886 103.03 47.4275 102.834 47.7244C102.635 48.0213 102.367 48.2563 102.03 48.427C101.698 48.5977 101.308 48.6843 100.863 48.6843Z" fill="#434569"/>
<path d="M107.976 46.1311V42.6973H109.086V48.5655H107.995V47.5462H107.938C107.804 47.8629 107.593 48.1276 107.306 48.3379C107.019 48.5432 106.661 48.6447 106.235 48.6447C105.871 48.6447 105.548 48.563 105.269 48.3973C104.994 48.2266 104.776 47.9767 104.618 47.6452C104.458 47.3161 104.379 46.9104 104.379 46.428V42.6973H105.479V46.2895C105.479 46.6927 105.584 47.0118 105.795 47.2493C106.01 47.4868 106.292 47.6056 106.637 47.6056C106.847 47.6056 107.053 47.5536 107.259 47.4473C107.462 47.3359 107.632 47.1702 107.766 46.9525C107.904 46.7348 107.976 46.4626 107.976 46.1311Z" fill="#434569"/>
<path d="M110.563 48.5657V42.6975H111.625V43.6277H111.692C111.793 43.311 111.975 43.0636 112.238 42.8855C112.498 42.7024 112.795 42.6084 113.127 42.6084C113.197 42.6084 113.281 42.6133 113.376 42.6183C113.472 42.6183 113.544 42.6232 113.596 42.6282V43.7266C113.551 43.7143 113.472 43.7019 113.357 43.687C113.247 43.6673 113.137 43.6574 113.022 43.6574C112.759 43.6574 112.527 43.7143 112.324 43.8256C112.118 43.9394 111.955 44.0977 111.836 44.3006C111.721 44.4985 111.664 44.7261 111.664 44.9834V48.5657H110.563Z" fill="#434569"/>
<path d="M117.001 48.6843C116.446 48.6843 115.963 48.5631 115.556 48.3182C115.154 48.0683 114.843 47.7145 114.628 47.2593C114.41 46.8041 114.303 46.2747 114.303 45.6661C114.303 45.0674 114.41 44.538 114.628 44.0827C114.843 43.6226 115.149 43.2614 115.546 43.0041C115.941 42.7468 116.4 42.6182 116.924 42.6182C117.249 42.6182 117.56 42.6751 117.862 42.7864C118.161 42.8928 118.429 43.0635 118.665 43.301C118.907 43.5335 119.096 43.8354 119.23 44.2114C119.369 44.5825 119.44 45.0327 119.44 45.5671V45.9729H114.925V45.1119H118.359C118.359 44.815 118.297 44.5528 118.177 44.3202C118.063 44.0827 117.895 43.8997 117.68 43.7661C117.469 43.6275 117.221 43.5583 116.934 43.5583C116.62 43.5583 116.35 43.6374 116.12 43.7958C115.891 43.9541 115.711 44.1594 115.585 44.4093C115.463 44.6617 115.403 44.9313 115.403 45.2208V45.8937C115.403 46.2846 115.47 46.6161 115.604 46.8932C115.738 47.1702 115.924 47.383 116.168 47.5265C116.41 47.6725 116.695 47.7442 117.02 47.7442C117.223 47.7442 117.412 47.7145 117.584 47.6551C117.761 47.5908 117.912 47.4943 118.034 47.3682C118.161 47.2445 118.256 47.0886 118.321 46.9031L119.373 47.101C119.29 47.4176 119.139 47.6947 118.924 47.9322C118.706 48.1697 118.436 48.3553 118.11 48.4864C117.785 48.6175 117.414 48.6843 117.001 48.6843Z" fill="#434569"/>
<path d="M123.515 48.5659V40.7383H126.213C126.799 40.7383 127.286 40.8447 127.676 41.0549C128.064 41.2603 128.356 41.5473 128.547 41.9159C128.738 42.287 128.834 42.7125 128.834 43.1924C128.834 43.6674 128.733 44.0905 128.537 44.4591C128.346 44.8228 128.054 45.1073 127.667 45.3102C127.284 45.5081 126.799 45.607 126.213 45.607H124.165V44.5878H126.107C126.476 44.5878 126.777 44.5358 127.007 44.4294C127.241 44.3181 127.413 44.1573 127.523 43.9445C127.631 43.7342 127.686 43.4844 127.686 43.1924C127.686 42.8956 127.628 42.6383 127.514 42.4206C127.404 42.2029 127.231 42.0396 126.997 41.9258C126.767 41.807 126.464 41.7477 126.088 41.7477H124.653V48.5659H123.515ZM127.255 45.0331L129.121 48.5659H127.82L125.983 45.0331H127.255Z" fill="#434569"/>
<path d="M132.578 48.6843C132.023 48.6843 131.54 48.5631 131.133 48.3182C130.731 48.0683 130.42 47.7145 130.205 47.2593C129.988 46.8041 129.88 46.2747 129.88 45.6661C129.88 45.0674 129.988 44.538 130.205 44.0827C130.42 43.6226 130.727 43.2614 131.124 43.0041C131.518 42.7468 131.977 42.6182 132.501 42.6182C132.827 42.6182 133.137 42.6751 133.439 42.7864C133.738 42.8928 134.006 43.0635 134.242 43.301C134.484 43.5335 134.673 43.8354 134.807 44.2114C134.946 44.5825 135.017 45.0327 135.017 45.5671V45.9729H130.502V45.1119H133.936C133.936 44.815 133.874 44.5528 133.755 44.3202C133.64 44.0827 133.472 43.8997 133.257 43.7661C133.047 43.6275 132.798 43.5583 132.511 43.5583C132.198 43.5583 131.927 43.6374 131.698 43.7958C131.468 43.9541 131.289 44.1594 131.162 44.4093C131.04 44.6617 130.98 44.9313 130.98 45.2208V45.8937C130.98 46.2846 131.047 46.6161 131.181 46.8932C131.315 47.1702 131.502 47.383 131.745 47.5265C131.987 47.6725 132.272 47.7442 132.597 47.7442C132.8 47.7442 132.989 47.7145 133.161 47.6551C133.338 47.5908 133.489 47.4943 133.611 47.3682C133.738 47.2445 133.833 47.0886 133.898 46.9031L134.95 47.101C134.867 47.4176 134.716 47.6947 134.501 47.9322C134.283 48.1697 134.013 48.3553 133.688 48.4864C133.362 48.6175 132.992 48.6843 132.578 48.6843Z" fill="#434569"/>
<path d="M138.64 48.6843C138.085 48.6843 137.609 48.5557 137.215 48.2984C136.818 48.0411 136.516 47.6848 136.306 47.2296C136.095 46.7695 135.99 46.245 135.99 45.6562C135.99 45.0624 136.098 44.538 136.316 44.0827C136.531 43.6226 136.837 43.2614 137.234 43.0041C137.629 42.7468 138.09 42.6182 138.621 42.6182C139.054 42.6182 139.439 42.7023 139.779 42.8656C140.116 43.0313 140.386 43.2614 140.592 43.5583C140.802 43.8502 140.927 44.1916 140.965 44.5874H139.894C139.836 44.3104 139.702 44.0729 139.492 43.8749C139.281 43.677 138.997 43.5781 138.64 43.5781C138.334 43.5781 138.066 43.6646 137.837 43.8354C137.607 44.0011 137.428 44.2386 137.301 44.5479C137.172 44.8521 137.11 45.2109 137.11 45.6265C137.11 46.057 137.169 46.4256 137.291 46.7348C137.418 47.0465 137.598 47.2865 137.827 47.4572C138.057 47.6304 138.327 47.7145 138.64 47.7145C138.851 47.7145 139.042 47.6749 139.214 47.5958C139.387 47.5166 139.53 47.4028 139.645 47.2494C139.764 47.0985 139.848 46.9179 139.894 46.7051H140.965C140.927 47.0886 140.807 47.4275 140.611 47.7244C140.413 48.0213 140.145 48.2563 139.808 48.427C139.475 48.5977 139.085 48.6843 138.64 48.6843Z" fill="#434569"/>
<path d="M143.256 45.0826V48.5659H142.156V40.7383H143.247V43.6477H143.314C143.448 43.331 143.651 43.0811 143.926 42.8956C144.199 42.7125 144.558 42.6185 144.998 42.6185C145.385 42.6185 145.725 42.7026 146.012 42.8659C146.304 43.0316 146.531 43.279 146.691 43.6081C146.856 43.9322 146.94 44.3404 146.94 44.8352V48.5659H145.83V44.9638C145.83 44.5358 145.72 44.2018 145.505 43.9643C145.294 43.7268 144.998 43.6081 144.615 43.6081C144.352 43.6081 144.12 43.6674 143.917 43.7862C143.711 43.9 143.548 44.0633 143.429 44.281C143.314 44.4987 143.256 44.7659 143.256 45.0826Z" fill="#434569"/>
<path d="M150.065 48.6942C149.706 48.6942 149.381 48.6249 149.089 48.4864C148.802 48.3479 148.572 48.1475 148.4 47.8827C148.233 47.6205 148.151 47.2939 148.151 46.9031C148.151 46.574 148.211 46.3044 148.333 46.0916C148.453 45.8739 148.62 45.7032 148.831 45.577C149.041 45.4533 149.273 45.3593 149.529 45.2999C149.79 45.2356 150.055 45.1861 150.323 45.1515C150.668 45.1119 150.945 45.0798 151.155 45.0525C151.366 45.0278 151.519 44.9833 151.615 44.9239C151.71 44.8596 151.758 44.7557 151.758 44.6171V44.5973C151.758 44.2609 151.667 44.0011 151.49 43.8156C151.311 43.6325 151.043 43.5385 150.687 43.5385C150.309 43.5385 150.012 43.6251 149.797 43.7958C149.586 43.9689 149.443 44.157 149.366 44.3598L148.324 44.1124C148.443 43.7562 148.623 43.4692 148.859 43.2515C149.101 43.0288 149.376 42.8656 149.682 42.7666C149.993 42.6676 150.323 42.6182 150.668 42.6182C150.897 42.6182 151.136 42.6454 151.385 42.6973C151.639 42.7518 151.878 42.8507 152.103 42.9942C152.325 43.1402 152.507 43.348 152.648 43.6176C152.794 43.8898 152.868 44.2386 152.868 44.6666V48.5656H151.787V47.764H151.749C151.677 47.91 151.569 48.0559 151.423 48.1994C151.282 48.3454 151.098 48.4641 150.868 48.5557C150.644 48.6472 150.376 48.6942 150.065 48.6942ZM150.304 47.7739C150.61 47.7739 150.871 47.7145 151.088 47.5958C151.311 47.4721 151.481 47.3063 151.596 47.101C151.71 46.8981 151.768 46.6804 151.768 46.4479V45.6859C151.729 45.7329 151.653 45.7725 151.538 45.8046C151.423 45.8393 151.294 45.8689 151.155 45.8937C151.014 45.9135 150.873 45.9333 150.734 45.9531C150.601 45.9729 150.488 45.9902 150.4 46.0025C150.182 46.0298 149.983 46.0768 149.806 46.1411C149.634 46.2079 149.493 46.3044 149.386 46.4281C149.283 46.5542 149.232 46.72 149.232 46.9229C149.232 47.2074 149.331 47.4226 149.529 47.5661C149.732 47.7046 149.991 47.7739 150.304 47.7739Z" fill="#434569"/>
<path d="M154.342 48.5657V42.6975H155.404V43.6277H155.471C155.571 43.311 155.753 43.0636 156.016 42.8855C156.277 42.7024 156.573 42.6084 156.906 42.6084C156.975 42.6084 157.059 42.6133 157.155 42.6183C157.25 42.6183 157.322 42.6232 157.375 42.6282V43.7266C157.329 43.7143 157.25 43.7019 157.135 43.687C157.025 43.6673 156.915 43.6574 156.801 43.6574C156.537 43.6574 156.305 43.7143 156.102 43.8256C155.896 43.9394 155.734 44.0977 155.614 44.3006C155.499 44.4985 155.442 44.7261 155.442 44.9834V48.5657H154.342Z" fill="#434569"/>
<path d="M160.711 50.8911C160.264 50.8911 159.879 50.8268 159.554 50.7031C159.228 50.5843 158.963 50.421 158.76 50.2182C158.554 50.0202 158.401 49.7976 158.3 49.5551L159.247 49.1593C159.317 49.2706 159.405 49.3894 159.515 49.5156C159.63 49.6393 159.783 49.7456 159.975 49.8322C160.171 49.9238 160.424 49.9708 160.73 49.9708C161.144 49.9708 161.489 49.8644 161.764 49.6541C162.036 49.4413 162.175 49.1098 162.175 48.6546V47.4968H162.108C162.036 47.623 161.938 47.7615 161.811 47.9124C161.689 48.0658 161.52 48.1969 161.304 48.3083C161.087 48.4221 160.807 48.4765 160.462 48.4765C160.015 48.4765 159.611 48.3676 159.247 48.1499C158.889 47.9322 158.606 47.6131 158.396 47.19C158.19 46.762 158.09 46.2351 158.09 45.6067C158.09 44.9808 158.19 44.4464 158.396 44.0036C158.599 43.5558 158.879 43.2119 159.238 42.9744C159.601 42.7369 160.013 42.6182 160.472 42.6182C160.821 42.6182 161.106 42.6825 161.324 42.8062C161.539 42.9249 161.709 43.0635 161.831 43.2218C161.95 43.3801 162.046 43.5236 162.118 43.6473H162.194V42.6973H163.275V48.6942C163.275 49.2014 163.16 49.617 162.931 49.9411C162.706 50.2627 162.4 50.5002 162.012 50.6536C161.63 50.8119 161.194 50.8911 160.711 50.8911ZM160.702 47.5265C161.02 47.5265 161.288 47.4523 161.505 47.2989C161.728 47.148 161.898 46.9278 162.012 46.6359C162.127 46.3464 162.185 45.9976 162.185 45.5869C162.185 45.1985 162.127 44.8521 162.012 44.5479C161.902 44.246 161.737 44.011 161.515 43.8452C161.297 43.6745 161.027 43.588 160.702 43.588C160.369 43.588 160.092 43.677 159.869 43.8551C159.652 44.0333 159.487 44.2757 159.372 44.5775C159.257 44.8818 159.2 45.2183 159.2 45.5869C159.2 45.9778 159.257 46.3167 159.372 46.6062C159.487 46.8981 159.654 47.1257 159.879 47.289C160.101 47.4473 160.376 47.5265 160.702 47.5265Z" fill="#434569"/>
<path d="M167.2 48.6843C166.645 48.6843 166.162 48.5631 165.755 48.3182C165.353 48.0683 165.042 47.7145 164.827 47.2593C164.61 46.8041 164.502 46.2747 164.502 45.6661C164.502 45.0674 164.61 44.538 164.827 44.0827C165.042 43.6226 165.349 43.2614 165.746 43.0041C166.14 42.7468 166.6 42.6182 167.123 42.6182C167.449 42.6182 167.76 42.6751 168.061 42.7864C168.36 42.8928 168.628 43.0635 168.865 43.301C169.106 43.5335 169.295 43.8354 169.429 44.2114C169.568 44.5825 169.639 45.0327 169.639 45.5671V45.9729H165.124V45.1119H168.558C168.558 44.815 168.496 44.5528 168.377 44.3202C168.262 44.0827 168.094 43.8997 167.879 43.7661C167.669 43.6275 167.42 43.5583 167.133 43.5583C166.82 43.5583 166.549 43.6374 166.32 43.7958C166.09 43.9541 165.911 44.1594 165.784 44.4093C165.662 44.6617 165.602 44.9313 165.602 45.2208V45.8937C165.602 46.2846 165.669 46.6161 165.803 46.8932C165.937 47.1702 166.124 47.383 166.368 47.5265C166.609 47.6725 166.894 47.7442 167.219 47.7442C167.422 47.7442 167.611 47.7145 167.783 47.6551C167.96 47.5908 168.111 47.4943 168.233 47.3682C168.36 47.2445 168.456 47.0886 168.52 46.9031L169.573 47.101C169.489 47.4176 169.338 47.6947 169.123 47.9322C168.905 48.1697 168.635 48.3553 168.31 48.4864C167.984 48.6175 167.614 48.6843 167.2 48.6843Z" fill="#434569"/>
<path d="M8.65124 21.6426L18.0294 34.4824C18.2733 34.8164 18.5005 35.1628 18.7134 35.519C18.9239 35.8753 19.1176 36.2439 19.2922 36.6199C19.4692 36.996 19.6271 37.3819 19.7682 37.7728C19.9069 38.1661 20.0289 38.5645 20.1293 38.9702C20.2322 39.3759 20.3135 39.7841 20.3757 40.1973C20.4403 40.6104 20.4833 41.026 20.5072 41.4441C20.5312 41.8622 20.5336 42.2803 20.5168 42.6984C20.5025 43.1165 20.4666 43.5322 20.4092 43.9478C20.3542 44.3634 20.28 44.7741 20.1844 45.1798C20.0887 45.5855 19.9763 45.9888 19.8423 46.3822C19.7108 46.778 19.5601 47.1664 19.3903 47.5449C19.2205 47.9259 19.0339 48.297 18.8282 48.6582C18.6225 49.0194 18.4025 49.3682 18.1633 49.7072C17.9265 50.0461 17.673 50.3702 17.4027 50.6844C17.1348 50.9961 16.8526 51.2954 16.5536 51.5775C16.2571 51.862 15.9485 52.1316 15.6256 52.384L6.24751 39.5441C6.00355 39.2102 5.77633 38.8638 5.56585 38.5076C5.35299 38.1513 5.15925 37.7827 4.98465 37.4066C4.80766 37.0306 4.64981 36.6447 4.51108 36.2513C4.36997 35.8604 4.25038 35.4596 4.14753 35.0564C4.04469 34.6507 3.96337 34.2424 3.90118 33.8293C3.8366 33.4137 3.79355 32.998 3.76963 32.5824C3.74811 32.1643 3.74333 31.7462 3.76007 31.3281C3.77681 30.91 3.81269 30.4919 3.8677 30.0788C3.92271 29.6632 3.99924 29.2525 4.09252 28.8467C4.18819 28.4385 4.30061 28.0378 4.43455 27.6419C4.56609 27.2486 4.71917 26.8602 4.88659 26.4792C5.05641 26.1007 5.24536 25.7296 5.44866 25.3684C5.65435 25.0072 5.87439 24.6583 6.11357 24.3194C6.35036 23.9805 6.60388 23.6564 6.87415 23.3422C7.14203 23.0305 7.42426 22.7311 7.72323 22.4466C8.01981 22.1646 8.33074 21.8949 8.65124 21.6426Z" fill="#222550"/>
<path d="M15.5708 5.47949L24.9489 18.3193C25.1929 18.6533 25.4201 18.9972 25.6305 19.3559C25.841 19.7122 26.0348 20.0808 26.2117 20.4568C26.3887 20.8329 26.5466 21.2188 26.6853 21.6122C26.8264 22.0031 26.946 22.4038 27.0489 22.8096C27.1493 23.2128 27.233 23.6235 27.2952 24.0367C27.3574 24.4498 27.4028 24.8654 27.4244 25.2835C27.4483 25.7016 27.4531 26.1197 27.4363 26.5378C27.4196 26.9559 27.3837 27.374 27.3287 27.7872C27.2713 28.2028 27.1972 28.6135 27.1015 29.0192C27.0058 29.4274 26.8934 29.8282 26.7595 30.224C26.6279 30.6199 26.4748 31.0083 26.305 31.3868C26.1352 31.7678 25.9487 32.1389 25.743 32.5001C25.5397 32.8588 25.3172 33.2101 25.078 33.549C24.8413 33.8855 24.5877 34.212 24.3175 34.5238C24.0496 34.838 23.765 35.1348 23.4684 35.4193C23.1694 35.7038 22.8609 35.971 22.538 36.2234L13.1599 23.3835C12.9159 23.0495 12.6887 22.7057 12.4758 22.3469C12.2653 21.9907 12.0716 21.6245 11.8946 21.246C11.72 20.87 11.5622 20.4841 11.421 20.0932C11.2823 19.6998 11.1603 19.299 11.0599 18.8958C10.957 18.49 10.8757 18.0794 10.8111 17.6662C10.749 17.2531 10.7059 16.8374 10.682 16.4193C10.6581 16.0012 10.6557 15.5831 10.6724 15.165C10.6868 14.7469 10.725 14.3288 10.78 13.9157C10.8351 13.5001 10.9116 13.0894 11.0049 12.6837C11.1005 12.2755 11.2153 11.8747 11.3469 11.4788C11.4808 11.083 11.6315 10.6971 11.8013 10.3161C11.9711 9.93509 12.1601 9.56647 12.3634 9.20527C12.5691 8.84408 12.7915 8.49277 13.0283 8.15632C13.2675 7.81738 13.521 7.49082 13.7889 7.1791C14.0592 6.86491 14.3414 6.56803 14.6404 6.28353C14.9369 5.99902 15.2479 5.73184 15.5708 5.47949Z" fill="#0AD97C"/>
</svg>
