<svg width="120" height="38" viewBox="0 0 120 38" fill="none" xmlns="http://www.w3.org/2000/svg">
<path d="M25.9998 21.0949V6.5835H32.1426C33.5449 6.5835 34.6587 6.93656 35.481 7.63946C36.3064 8.34398 36.7206 9.29144 36.7206 10.4834C36.7206 11.1572 36.5749 11.771 36.2849 12.3233C35.998 12.8772 35.593 13.3129 35.0698 13.6319C35.7234 13.9348 36.2312 14.3834 36.5918 14.9794C36.9508 15.5754 37.1318 16.2605 37.1318 17.033C37.1318 17.8493 36.9354 18.5619 36.5427 19.1709C36.1499 19.7766 35.6037 20.2495 34.9042 20.5896C34.2046 20.9265 33.3899 21.0949 32.4617 21.0949H25.9998ZM29.0804 18.4842H31.9892C32.6029 18.4842 33.0785 18.3336 33.4191 18.0307C33.7627 17.7246 33.9345 17.2954 33.9345 16.7415C33.9345 16.1892 33.7627 15.7617 33.4191 15.4588C33.0785 15.1527 32.6029 14.9988 31.9892 14.9988H29.0804V18.4842ZM29.0804 12.4917H31.6762C32.2776 12.4917 32.7379 12.3476 33.057 12.0577C33.3792 11.7694 33.5418 11.3613 33.5418 10.8333C33.5418 10.3069 33.3792 9.90364 33.057 9.62183C32.7379 9.33678 32.2776 9.19426 31.6762 9.19426H29.0804V12.4917Z" fill="#222550"/>
<path d="M44.2403 21.3853C43.1387 21.3853 42.166 21.1424 41.3192 20.6598C40.4754 20.1771 39.8187 19.5034 39.3493 18.6385C38.8783 17.7753 38.6436 16.776 38.6436 15.6391C38.6436 14.5086 38.8798 13.5142 39.3554 12.659C39.8341 11.8007 40.4938 11.1285 41.3376 10.6443C42.1844 10.1616 43.1633 9.9187 44.2771 9.9187C45.4553 9.9187 46.471 10.1956 47.327 10.7479C48.1862 11.3018 48.8397 12.076 49.2908 13.0736C49.7449 14.0681 49.9382 15.2277 49.8738 16.5525H41.6076C41.7503 17.3008 42.0632 17.8708 42.5465 18.2628C43.0329 18.6563 43.6158 18.8523 44.2955 18.8523C44.7941 18.8523 45.2497 18.7535 45.664 18.5543C46.0767 18.3567 46.4065 18.0749 46.652 17.7121H49.6774C49.2309 18.862 48.5298 19.7625 47.5725 20.4136C46.6182 21.0614 45.5075 21.3853 44.2403 21.3853ZM41.626 14.5637H46.9895C46.8177 13.8996 46.4986 13.3765 46.0322 12.9959C45.5689 12.6169 44.9905 12.4258 44.2955 12.4258C43.6404 12.4258 43.0743 12.6169 42.5956 12.9959C42.12 13.3765 41.7978 13.8996 41.626 14.5637Z" fill="#222550"/>
<path d="M52.1096 21.0945V10.2109H54.3311L54.7239 11.6621C55.0629 11.1535 55.4802 10.7843 55.9758 10.5543C56.4744 10.3259 57.1049 10.2109 57.8659 10.2109H58.9828V13.0744H57.8475C56.996 13.0744 56.3256 13.3173 55.8346 13.7999C55.3437 14.2842 55.0982 15.1134 55.0982 16.2876V21.0945H52.1096Z" fill="#222550"/>
<path d="M66.0169 21.3853C64.9153 21.3853 63.9426 21.1424 63.0958 20.6598C62.252 20.1771 61.5953 19.5034 61.1259 18.6385C60.6549 17.7753 60.4202 16.776 60.4202 15.6391C60.4202 14.5086 60.6564 13.5142 61.132 12.659C61.6107 11.8007 62.2704 11.1285 63.1142 10.6443C63.9611 10.1616 64.9399 9.9187 66.0537 9.9187C67.2319 9.9187 68.2476 10.1956 69.1036 10.7479C69.9628 11.3018 70.6163 12.076 71.0674 13.0736C71.5215 14.0681 71.7148 15.2277 71.6504 16.5525H63.3842C63.5269 17.3008 63.8399 17.8708 64.3231 18.2628C64.8095 18.6563 65.3925 18.8523 66.0721 18.8523C66.5707 18.8523 67.0264 18.7535 67.4406 18.5543C67.8533 18.3567 68.1831 18.0749 68.4286 17.7121H71.454C71.0076 18.862 70.3064 19.7625 69.3491 20.4136C68.3948 21.0614 67.2841 21.3853 66.0169 21.3853ZM63.4026 14.5637H68.7661C68.5943 13.8996 68.2752 13.3765 67.8088 12.9959C67.3455 12.6169 66.7671 12.4258 66.0721 12.4258C65.417 12.4258 64.8509 12.6169 64.3722 12.9959C63.8966 13.3765 63.5744 13.8996 63.4026 14.5637Z" fill="#222550"/>
<path d="M73.885 21.0946V5.75391H76.8736V21.0946H73.885Z" fill="#222550"/>
<path d="M84.922 21.3853C83.7805 21.3853 82.7741 21.1424 81.9027 20.6598C81.0344 20.1771 80.3563 19.5034 79.8653 18.6385C79.3744 17.7753 79.1289 16.776 79.1289 15.6391C79.1289 14.5086 79.3744 13.5142 79.8653 12.659C80.3563 11.8007 81.0344 11.1285 81.9027 10.6443C82.7741 10.1616 83.7805 9.9187 84.922 9.9187C86.0588 9.9187 87.0637 10.1616 87.9351 10.6443C88.8065 11.1285 89.4831 11.8007 89.9664 12.659C90.4527 13.5142 90.6966 14.5086 90.6966 15.6391C90.6966 16.776 90.4527 17.7753 89.9664 18.6385C89.4831 19.5034 88.8065 20.1771 87.9351 20.6598C87.0637 21.1424 86.0588 21.3853 84.922 21.3853ZM82.0745 15.6391C82.0745 16.525 82.3384 17.2522 82.8662 17.8223C83.397 18.3891 84.0828 18.6709 84.922 18.6709C85.7596 18.6709 86.4408 18.3891 86.9655 17.8223C87.4887 17.2522 87.751 16.525 87.751 15.6391C87.751 14.7418 87.4887 14.013 86.9655 13.4559C86.4408 12.8955 85.7596 12.6137 84.922 12.6137C84.0828 12.6137 83.397 12.8955 82.8662 13.4559C82.3384 14.013 82.0745 14.7418 82.0745 15.6391Z" fill="#222550"/>
<path d="M96.3866 21.3011C95.1715 21.3011 94.2096 21.0015 93.5023 20.4006C92.7935 19.8014 92.4407 18.9738 92.4407 17.9194C92.4407 16.9137 92.7567 16.1104 93.3919 15.5095C94.0255 14.9054 94.88 14.6025 95.957 14.6025H99.6882V14.1102C99.6882 13.5709 99.504 13.1384 99.1358 12.8145C98.7707 12.4874 98.2951 12.3222 97.706 12.3222C97.2181 12.3222 96.8054 12.442 96.4664 12.6785C96.1258 12.9117 95.9095 13.2226 95.8159 13.6113H92.95C93.1341 12.4242 93.6404 11.5124 94.4719 10.8775C95.3019 10.2394 96.3712 9.9187 97.6814 9.9187C99.2279 9.9187 100.437 10.3317 101.308 11.1561C102.18 11.9772 102.615 13.106 102.615 14.5442V21.0938H100.394L100.062 19.8305C99.1573 20.812 97.933 21.3011 96.3866 21.3011ZM95.3863 17.7963C95.3863 18.1721 95.5397 18.4749 95.8466 18.7033C96.1534 18.9284 96.5615 19.0402 97.0739 19.0402C97.8226 19.0402 98.4424 18.8134 98.9333 18.36C99.4243 17.9032 99.682 17.3072 99.7066 16.5719H96.8775C96.4311 16.5719 96.0705 16.6853 95.7975 16.9088C95.5228 17.1291 95.3863 17.4255 95.3863 17.7963Z" fill="#222550"/>
<path d="M109.914 21.3861C108.895 21.3861 107.993 21.1415 107.208 20.6541C106.422 20.1617 105.802 19.4847 105.348 18.6199C104.897 17.7566 104.673 16.7638 104.673 15.6398C104.673 14.5223 104.897 13.5344 105.348 12.6792C105.802 11.8209 106.422 11.1471 107.208 10.658C107.993 10.1656 108.895 9.91947 109.914 9.91947C110.555 9.91947 111.151 10.0215 111.7 10.2239C112.252 10.4232 112.751 10.7017 113.197 11.0597V5.75391H116.18V21.0946H113.958L113.608 19.8507C113.15 20.335 112.605 20.7124 111.976 20.9844C111.35 21.2517 110.663 21.3861 109.914 21.3861ZM107.619 15.6398C107.619 16.5257 107.883 17.2529 108.411 17.823C108.941 18.3899 109.627 18.6717 110.466 18.6717C111.304 18.6717 111.985 18.3899 112.51 17.823C113.033 17.2529 113.295 16.5257 113.295 15.6398C113.295 14.7588 113.033 14.0364 112.51 13.4696C111.985 12.8995 111.304 12.6145 110.466 12.6145C109.627 12.6145 108.941 12.8995 108.411 13.4696C107.883 14.0364 107.619 14.7588 107.619 15.6398Z" fill="#222550"/>
<path d="M26.759 27.1592V32.3776H26V27.1592H26.759Z" fill="#434569"/>
<path d="M28.5455 30.0548V32.377H27.812V28.4649H28.52V29.0982H28.5646C28.6491 28.8921 28.7847 28.7271 28.9728 28.6034C29.1594 28.4764 29.3954 28.4121 29.6808 28.4121C29.9391 28.4121 30.1655 28.4682 30.3569 28.577C30.5514 28.6875 30.7029 28.8525 30.8097 29.0718C30.9149 29.2928 30.9691 29.565 30.9691 29.8899V32.377H30.2293V29.9757C30.2293 29.6953 30.1559 29.4743 30.0124 29.3159C29.8721 29.1543 29.6776 29.0718 29.432 29.0718C29.2566 29.0718 29.1036 29.1114 28.9728 29.1906C28.8405 29.2664 28.7368 29.3753 28.6603 29.5204C28.5838 29.6656 28.5455 29.8437 28.5455 30.0548Z" fill="#434569"/>
<path d="M34.7868 29.4149L34.1235 29.5402C34.0932 29.4528 34.0485 29.3687 33.9895 29.2895C33.9289 29.2104 33.8492 29.1444 33.7472 29.0916C33.6451 29.0388 33.5175 29.0125 33.3645 29.0125C33.1556 29.0125 32.9818 29.0619 32.8415 29.1576C32.7012 29.2549 32.631 29.3786 32.631 29.527C32.631 29.659 32.6772 29.7645 32.7713 29.8437C32.8638 29.9229 33.0153 29.9888 33.2242 30.0416L33.8301 30.1868C34.1777 30.2709 34.4376 30.3979 34.6082 30.5694C34.7772 30.7409 34.8633 30.9652 34.8633 31.2423C34.8633 31.4798 34.7963 31.6909 34.6656 31.8757C34.538 32.0571 34.3563 32.1989 34.1235 32.3045C33.8891 32.4051 33.6196 32.4562 33.3134 32.4562C32.8925 32.4562 32.5481 32.3638 32.2802 32.1791C32.0123 31.9911 31.8465 31.7223 31.7827 31.3743L32.4971 31.2621C32.5385 31.4518 32.6278 31.5969 32.7649 31.6975C32.9053 31.7948 33.087 31.8427 33.3134 31.8427C33.551 31.8427 33.7424 31.7899 33.8875 31.6843C34.031 31.5788 34.1043 31.4518 34.1043 31.3017C34.1043 31.1796 34.0597 31.0757 33.9704 30.9916C33.8843 30.9092 33.7535 30.8465 33.5749 30.8069L32.9308 30.6618C32.5768 30.5793 32.3153 30.4474 32.1463 30.2659C31.9804 30.0812 31.8975 29.8503 31.8975 29.5732C31.8975 29.3407 31.9581 29.1378 32.0825 28.9663C32.21 28.7914 32.3823 28.6546 32.5991 28.5572C32.8191 28.4616 33.0727 28.4121 33.3581 28.4121C33.7663 28.4121 34.0868 28.5045 34.3212 28.6892C34.5588 28.8706 34.7134 29.1114 34.7868 29.4149Z" fill="#434569"/>
<path d="M37.4386 28.4649V29.0718H35.3721V28.4649H37.4386ZM35.9206 27.5215H36.6604V31.2291C36.6604 31.3743 36.6812 31.4848 36.7242 31.559C36.7657 31.6349 36.8215 31.6843 36.89 31.7107C36.957 31.7371 37.032 31.7503 37.1133 31.7503C37.1723 31.7503 37.2233 31.747 37.2664 31.7371C37.3126 31.7289 37.3493 31.7223 37.3748 31.7173L37.5087 32.3441C37.4609 32.3622 37.3971 32.3787 37.3174 32.3968C37.2408 32.4133 37.1452 32.4249 37.0304 32.4298C36.8342 32.4331 36.6509 32.3985 36.4819 32.3243C36.316 32.2451 36.1789 32.1296 36.0737 31.9746C35.9716 31.8163 35.9206 31.6217 35.9206 31.3875V27.5215Z" fill="#434569"/>
<path d="M39.3476 32.4628C39.1085 32.4628 38.8916 32.4166 38.6971 32.3243C38.5057 32.2319 38.3527 32.0983 38.2379 31.9218C38.1262 31.747 38.072 31.5293 38.072 31.2687C38.072 31.0493 38.1119 30.8696 38.1932 30.7277C38.2729 30.5826 38.3845 30.4688 38.5249 30.3847C38.6652 30.3022 38.8198 30.2395 38.9905 30.2C39.1643 30.1571 39.3413 30.1241 39.5198 30.101C39.7494 30.0746 39.9344 30.0532 40.0747 30.035C40.215 30.0185 40.3171 29.9888 40.3809 29.9493C40.4447 29.9064 40.4765 29.8371 40.4765 29.7447V29.7316C40.4765 29.5072 40.416 29.3341 40.298 29.2104C40.1784 29.0883 39.9998 29.0257 39.7622 29.0257C39.5103 29.0257 39.3126 29.0834 39.169 29.1972C39.0287 29.3126 38.9331 29.438 38.882 29.5732L38.1868 29.4083C38.2666 29.1708 38.3861 28.9795 38.544 28.8343C38.705 28.6859 38.8884 28.577 39.0925 28.5111C39.2998 28.4451 39.5198 28.4121 39.7494 28.4121C39.9025 28.4121 40.062 28.4303 40.2278 28.4649C40.3968 28.5012 40.5563 28.5671 40.7062 28.6628C40.8544 28.7601 40.9756 28.8987 41.0697 29.0784C41.167 29.2599 41.2164 29.4924 41.2164 29.7777V32.377H40.4957V31.8427H40.4702C40.4223 31.94 40.3506 32.0373 40.2533 32.1329C40.1592 32.2303 40.0365 32.3094 39.8834 32.3704C39.7335 32.4315 39.5549 32.4628 39.3476 32.4628ZM39.5071 31.8493C39.7112 31.8493 39.885 31.8097 40.0301 31.7305C40.1784 31.648 40.2916 31.5375 40.3681 31.4007C40.4447 31.2654 40.4829 31.1203 40.4829 30.9652V30.4572C40.4574 30.4886 40.4064 30.515 40.3299 30.5364C40.2533 30.5595 40.1672 30.5793 40.0747 30.5958C39.9807 30.609 39.8866 30.6222 39.7941 30.6354C39.7048 30.6486 39.6299 30.6601 39.5709 30.6684C39.4258 30.6865 39.2934 30.7178 39.1754 30.7607C39.0606 30.8053 38.9665 30.8696 38.8948 30.952C38.8262 31.0362 38.7927 31.1467 38.7927 31.2819C38.7927 31.4716 38.8581 31.6151 38.9905 31.7107C39.126 31.8031 39.2982 31.8493 39.5071 31.8493Z" fill="#434569"/>
<path d="M42.9325 30.0548V32.377H42.199V28.4649H42.9069V29.0982H42.9516C43.0361 28.8921 43.1716 28.7271 43.3598 28.6034C43.5463 28.4764 43.7823 28.4121 44.0677 28.4121C44.3261 28.4121 44.5525 28.4682 44.7438 28.577C44.9383 28.6875 45.0898 28.8525 45.1967 29.0718C45.3019 29.2928 45.3561 29.565 45.3561 29.8899V32.377H44.6163V29.9757C44.6163 29.6953 44.5429 29.4743 44.3994 29.3159C44.2591 29.1543 44.0646 29.0718 43.819 29.0718C43.6436 29.0718 43.4905 29.1114 43.3598 29.1906C43.2274 29.2664 43.1238 29.3753 43.0473 29.5204C42.9707 29.6656 42.9325 29.8437 42.9325 30.0548Z" fill="#434569"/>
<path d="M48.1085 28.4649V29.0718H46.042V28.4649H48.1085ZM46.5905 27.5215H47.3304V31.2291C47.3304 31.3743 47.3511 31.4848 47.3941 31.559C47.4356 31.6349 47.4914 31.6843 47.56 31.7107C47.6269 31.7371 47.7019 31.7503 47.7832 31.7503C47.8422 31.7503 47.8932 31.747 47.9363 31.7371C47.9825 31.7289 48.0192 31.7223 48.0447 31.7173L48.1786 32.3441C48.1308 32.3622 48.067 32.3787 47.9873 32.3968C47.9108 32.4133 47.8151 32.4249 47.7003 32.4298C47.5042 32.4331 47.3208 32.3985 47.1518 32.3243C46.9859 32.2451 46.8488 32.1296 46.7436 31.9746C46.6415 31.8163 46.5905 31.6217 46.5905 31.3875V27.5215Z" fill="#434569"/>
<path d="M52.2251 32.4502C51.8838 32.4502 51.5936 32.3859 51.3513 32.2589C51.1089 32.1319 50.9208 31.9587 50.79 31.7377C50.6577 31.5183 50.5923 31.2693 50.5923 30.9922C50.5923 30.7811 50.6337 30.5931 50.7198 30.4249C50.8044 30.2583 50.9239 30.1049 51.077 29.963C51.2301 29.8229 51.4055 29.6827 51.6064 29.5408L52.4164 28.9471C52.5567 28.8514 52.6652 28.7525 52.7417 28.6502C52.8182 28.5446 52.8565 28.416 52.8565 28.261C52.8565 28.1389 52.8055 28.0218 52.7034 27.9113C52.6014 27.7975 52.4642 27.7398 52.2952 27.7398C52.1756 27.7398 52.072 27.7711 51.9827 27.8321C51.8934 27.8899 51.8232 27.9641 51.7722 28.0565C51.7244 28.1488 51.7021 28.2461 51.7021 28.3467C51.7021 28.4655 51.7308 28.5875 51.7914 28.7096C51.8551 28.8283 51.9381 28.952 52.0401 29.079C52.1422 29.2077 52.2458 29.3413 52.3526 29.4815L54.6998 32.3776H53.8642L51.9253 30.0224C51.7627 29.8212 51.6128 29.6315 51.4725 29.4551C51.3321 29.2802 51.2189 29.1021 51.1344 28.9207C51.0483 28.7409 51.0069 28.5446 51.0069 28.3335C51.0069 28.096 51.0595 27.8849 51.1663 27.7002C51.2715 27.5122 51.4182 27.3637 51.6064 27.2582C51.7977 27.1526 52.021 27.0999 52.2761 27.0999C52.5344 27.0999 52.7576 27.1526 52.9458 27.2582C53.1323 27.3637 53.2774 27.5023 53.3795 27.6738C53.4815 27.8453 53.5326 28.035 53.5326 28.2412C53.5326 28.4886 53.472 28.7063 53.354 28.8943C53.2344 29.084 53.0702 29.2571 52.8629 29.4155L51.8488 30.1874C51.6479 30.3374 51.5107 30.4842 51.4342 30.6294C51.3608 30.7745 51.3258 30.89 51.3258 30.9724C51.3258 31.1225 51.3608 31.2611 51.4342 31.388C51.5107 31.5167 51.6144 31.6173 51.7467 31.6915C51.8822 31.7674 52.0417 31.8037 52.2251 31.8037C52.4116 31.8037 52.595 31.7624 52.7736 31.6783C52.9522 31.5959 53.1132 31.4738 53.2583 31.3155C53.4066 31.1571 53.523 30.9691 53.6091 30.7481C53.6936 30.5288 53.7367 30.283 53.7367 30.0092H54.4C54.4 30.344 54.3617 30.6277 54.2852 30.8603C54.2118 31.0945 54.1225 31.2825 54.0173 31.4276C53.9153 31.5728 53.8196 31.6849 53.7303 31.7641C53.7 31.7905 53.6697 31.8202 53.641 31.8499C53.6155 31.8762 53.5868 31.9026 53.5581 31.929C53.3875 32.1104 53.1818 32.2424 52.9394 32.3249C52.697 32.4073 52.4579 32.4502 52.2251 32.4502Z" fill="#434569"/>
<path d="M59.9233 28.531C59.893 28.2902 59.7829 28.1022 59.5916 27.9702C59.4034 27.835 59.1659 27.7657 58.8773 27.7657C58.6684 27.7657 58.4882 27.802 58.3351 27.8713C58.1852 27.9372 58.0688 28.0296 57.9843 28.1483C57.903 28.2638 57.8631 28.3924 57.8631 28.5376C57.8631 28.6613 57.8902 28.7685 57.9461 28.8608C58.0051 28.9499 58.08 29.0241 58.1693 29.0851C58.2618 29.1478 58.3622 29.1973 58.4691 29.2369C58.5743 29.2765 58.6795 29.3094 58.7816 29.3358L59.2727 29.4678C59.4337 29.5074 59.598 29.5634 59.7638 29.6327C59.9328 29.7036 60.0907 29.796 60.2358 29.9098C60.3793 30.0203 60.4973 30.1605 60.5866 30.332C60.6759 30.5002 60.7205 30.6998 60.7205 30.9324C60.7205 31.2325 60.6456 31.4964 60.4973 31.724C60.3522 31.9533 60.1401 32.1331 59.8595 32.265C59.582 32.3969 59.2488 32.4629 58.8581 32.4629C58.4786 32.4629 58.1517 32.4002 57.8759 32.2782C57.5985 32.1561 57.3816 31.9797 57.2253 31.7504C57.0723 31.5228 56.9862 31.249 56.9702 30.9324H57.7292C57.7451 31.122 57.8057 31.2804 57.9078 31.4074C58.013 31.5311 58.147 31.6234 58.3096 31.6844C58.4754 31.7422 58.6556 31.7702 58.8517 31.7702C59.0638 31.7702 59.2552 31.7356 59.4258 31.6647C59.5948 31.5954 59.7271 31.4981 59.8212 31.3744C59.9185 31.2474 59.9679 31.0973 59.9679 30.9258C59.9679 30.7724 59.9248 30.647 59.8403 30.5497C59.7542 30.4491 59.6394 30.3683 59.4959 30.3056C59.3556 30.2397 59.193 30.1836 59.0112 30.1341L58.418 29.9626C58.013 29.8488 57.6925 29.6822 57.4549 29.4612C57.2206 29.2418 57.1042 28.9499 57.1042 28.5838C57.1042 28.2852 57.1823 28.023 57.3401 27.7987C57.4964 27.5744 57.7101 27.4012 57.9779 27.2775C58.249 27.1505 58.5536 27.0862 58.89 27.0862C59.2344 27.0862 59.5358 27.1489 59.7957 27.2709C60.0588 27.3946 60.2645 27.5661 60.4144 27.7855C60.5674 28.0015 60.6472 28.2506 60.6567 28.531H59.9233Z" fill="#434569"/>
<path d="M63.2 32.4562C62.8301 32.4562 62.508 32.3754 62.2369 32.2121C61.969 32.0455 61.7617 31.8097 61.6182 31.5062C61.4731 31.2027 61.4014 30.8498 61.4014 30.4441C61.4014 30.0449 61.4731 29.692 61.6182 29.3885C61.7617 29.0817 61.9658 28.8409 62.2305 28.6694C62.4936 28.4979 62.7998 28.4121 63.149 28.4121C63.3658 28.4121 63.5731 28.45 63.774 28.5243C63.9733 28.5952 64.1519 28.709 64.3098 28.8673C64.4708 29.0224 64.5968 29.2236 64.6861 29.4743C64.7785 29.7217 64.8264 30.0218 64.8264 30.3781V30.6486H61.8159V30.0746H64.1057C64.1057 29.8767 64.0642 29.7019 63.9845 29.5468C63.9079 29.3885 63.7963 29.2664 63.6528 29.1774C63.5125 29.085 63.3467 29.0388 63.1553 29.0388C62.9465 29.0388 62.7663 29.0916 62.6132 29.1972C62.4601 29.3027 62.3405 29.4396 62.256 29.6062C62.1747 29.7744 62.1348 29.9542 62.1348 30.1472V30.5958C62.1348 30.8564 62.1795 31.0774 62.2688 31.2621C62.3581 31.4468 62.4824 31.5887 62.6451 31.6843C62.8061 31.7816 62.9959 31.8295 63.2127 31.8295C63.3483 31.8295 63.4742 31.8097 63.589 31.7701C63.707 31.7272 63.8075 31.6629 63.8888 31.5788C63.9733 31.4963 64.0371 31.3924 64.0801 31.2687L64.7817 31.4007C64.7259 31.6118 64.6255 31.7965 64.482 31.9548C64.3369 32.1132 64.1567 32.2368 63.9398 32.3243C63.723 32.4117 63.4758 32.4562 63.2 32.4562Z" fill="#434569"/>
<path d="M67.2421 32.4562C66.8721 32.4562 66.5548 32.3704 66.2917 32.1989C66.027 32.0274 65.8261 31.7899 65.6858 31.4864C65.5455 31.1796 65.4753 30.83 65.4753 30.4375C65.4753 30.0416 65.5471 29.692 65.6922 29.3885C65.8357 29.0817 66.0398 28.8409 66.3045 28.6694C66.5676 28.4979 66.8753 28.4121 67.2293 28.4121C67.5179 28.4121 67.7746 28.4682 68.0011 28.577C68.2259 28.6875 68.4061 28.8409 68.5432 29.0388C68.6835 29.2335 68.7664 29.4611 68.7919 29.725H68.0776C68.0393 29.5402 67.95 29.3819 67.8097 29.25C67.6694 29.118 67.4796 29.052 67.2421 29.052C67.038 29.052 66.8594 29.1098 66.7063 29.2236C66.5532 29.3341 66.4336 29.4924 66.3491 29.6986C66.263 29.9014 66.2216 30.1406 66.2216 30.4177C66.2216 30.7046 66.2614 30.9504 66.3428 31.1566C66.4273 31.3644 66.5469 31.5243 66.6999 31.6382C66.853 31.7536 67.0332 31.8097 67.2421 31.8097C67.3824 31.8097 67.5099 31.7833 67.6247 31.7305C67.7396 31.6777 67.8352 31.6019 67.9118 31.4996C67.9915 31.399 68.0473 31.2786 68.0776 31.1368H68.7919C68.7664 31.3924 68.6867 31.6184 68.5559 31.8163C68.4236 32.0142 68.245 32.1709 68.0202 32.2847C67.7985 32.3985 67.5386 32.4562 67.2421 32.4562Z" fill="#434569"/>
<path d="M71.9843 30.7546V28.4653H72.7242V32.3775H71.9971V31.698H71.9588C71.8695 31.9091 71.7292 32.0856 71.5379 32.2257C71.3465 32.3626 71.1073 32.4303 70.8235 32.4303C70.5812 32.4303 70.3659 32.3758 70.1793 32.2653C69.996 32.1515 69.8509 31.985 69.7456 31.7639C69.6388 31.5446 69.5862 31.2741 69.5862 30.9525V28.4653H70.3197V30.8601C70.3197 31.129 70.3898 31.3417 70.5301 31.5001C70.6736 31.6584 70.8618 31.7376 71.0914 31.7376C71.2317 31.7376 71.3688 31.7029 71.506 31.632C71.6415 31.5578 71.7547 31.4473 71.844 31.3021C71.9365 31.157 71.9843 30.9756 71.9843 30.7546Z" fill="#434569"/>
<path d="M73.7092 32.3775V28.4654H74.4172V29.0855H74.4618C74.5288 28.8744 74.65 28.7095 74.8254 28.5907C74.9992 28.4687 75.1969 28.406 75.4185 28.406C75.4648 28.406 75.5206 28.4093 75.5844 28.4126C75.6482 28.4126 75.696 28.4159 75.7311 28.4192V29.1515C75.7008 29.1432 75.6482 29.135 75.5716 29.1251C75.4983 29.1119 75.4249 29.1053 75.3484 29.1053C75.173 29.1053 75.0183 29.1432 74.8828 29.2175C74.7457 29.2933 74.6372 29.3989 74.5575 29.5341C74.481 29.6661 74.4427 29.8178 74.4427 29.9893V32.3775H73.7092Z" fill="#434569"/>
<path d="M78.0005 32.4562C77.6306 32.4562 77.3085 32.3754 77.0374 32.2121C76.7696 32.0455 76.5623 31.8097 76.4188 31.5062C76.2737 31.2027 76.2019 30.8498 76.2019 30.4441C76.2019 30.0449 76.2737 29.692 76.4188 29.3885C76.5623 29.0817 76.7664 28.8409 77.0311 28.6694C77.2941 28.4979 77.6003 28.4121 77.9495 28.4121C78.1663 28.4121 78.3736 28.45 78.5745 28.5243C78.7739 28.5952 78.9524 28.709 79.1103 28.8673C79.2713 29.0224 79.3973 29.2236 79.4866 29.4743C79.5791 29.7217 79.6269 30.0218 79.6269 30.3781V30.6486H76.6165V30.0746H78.9062C78.9062 29.8767 78.8647 29.7019 78.785 29.5468C78.7085 29.3885 78.5969 29.2664 78.4534 29.1774C78.313 29.085 78.1472 29.0388 77.9559 29.0388C77.747 29.0388 77.5668 29.0916 77.4137 29.1972C77.2607 29.3027 77.1411 29.4396 77.0566 29.6062C76.9752 29.7744 76.9354 29.9542 76.9354 30.1472V30.5958C76.9354 30.8564 76.98 31.0774 77.0693 31.2621C77.1586 31.4468 77.283 31.5887 77.4456 31.6843C77.6067 31.7816 77.7964 31.8295 78.0133 31.8295C78.1488 31.8295 78.2748 31.8097 78.3896 31.7701C78.5076 31.7272 78.608 31.6629 78.6893 31.5788C78.7739 31.4963 78.8376 31.3924 78.8807 31.2687L79.5823 31.4007C79.5265 31.6118 79.426 31.7965 79.2825 31.9548C79.1374 32.1132 78.9572 32.2368 78.7404 32.3243C78.5235 32.4117 78.2764 32.4562 78.0005 32.4562Z" fill="#434569"/>
<path d="M82.343 32.3776V27.1592H84.1416C84.5323 27.1592 84.8576 27.2301 85.1175 27.3703C85.3758 27.5072 85.5703 27.6985 85.6979 27.9442C85.8254 28.1916 85.8892 28.4753 85.8892 28.7953C85.8892 29.112 85.8222 29.394 85.6915 29.6397C85.5639 29.8822 85.3694 30.0719 85.1111 30.2071C84.856 30.339 84.5323 30.405 84.1416 30.405H82.7767V29.7255H84.0715C84.317 29.7255 84.5179 29.6909 84.671 29.6199C84.8273 29.5457 84.9421 29.4385 85.0154 29.2967C85.0872 29.1565 85.1238 28.9899 85.1238 28.7953C85.1238 28.5974 85.0856 28.4258 85.009 28.2807C84.9357 28.1356 84.8209 28.0267 84.6646 27.9508C84.5116 27.8717 84.3091 27.8321 84.0587 27.8321H83.102V32.3776H82.343ZM84.8368 30.0224L86.0806 32.3776H85.2131L83.9886 30.0224H84.8368Z" fill="#434569"/>
<path d="M88.385 32.4562C88.0151 32.4562 87.693 32.3754 87.422 32.2121C87.1541 32.0455 86.9468 31.8097 86.8033 31.5062C86.6582 31.2027 86.5864 30.8498 86.5864 30.4441C86.5864 30.0449 86.6582 29.692 86.8033 29.3885C86.9468 29.0817 87.1509 28.8409 87.4156 28.6694C87.6787 28.4979 87.9848 28.4121 88.334 28.4121C88.5509 28.4121 88.7582 28.45 88.9591 28.5243C89.1584 28.5952 89.337 28.709 89.4948 28.8673C89.6559 29.0224 89.7818 29.2236 89.8711 29.4743C89.9636 29.7217 90.0114 30.0218 90.0114 30.3781V30.6486H87.001V30.0746H89.2907C89.2907 29.8767 89.2493 29.7019 89.1695 29.5468C89.093 29.3885 88.9814 29.2664 88.8379 29.1774C88.6976 29.085 88.5317 29.0388 88.3404 29.0388C88.1315 29.0388 87.9513 29.0916 87.7983 29.1972C87.6452 29.3027 87.5256 29.4396 87.4411 29.6062C87.3598 29.7744 87.3199 29.9542 87.3199 30.1472V30.5958C87.3199 30.8564 87.3645 31.0774 87.4538 31.2621C87.5431 31.4468 87.6675 31.5887 87.8301 31.6843C87.9912 31.7816 88.1809 31.8295 88.3978 31.8295C88.5333 31.8295 88.6593 31.8097 88.7741 31.7701C88.8921 31.7272 88.9925 31.6629 89.0739 31.5788C89.1584 31.4963 89.2222 31.3924 89.2652 31.2687L89.9668 31.4007C89.911 31.6118 89.8105 31.7965 89.667 31.9548C89.5219 32.1132 89.3417 32.2368 89.1249 32.3243C88.908 32.4117 88.6609 32.4562 88.385 32.4562Z" fill="#434569"/>
<path d="M92.4269 32.4562C92.057 32.4562 91.7396 32.3704 91.4765 32.1989C91.2119 32.0274 91.0109 31.7899 90.8706 31.4864C90.7303 31.1796 90.6602 30.83 90.6602 30.4375C90.6602 30.0416 90.7319 29.692 90.877 29.3885C91.0205 29.0817 91.2246 28.8409 91.4893 28.6694C91.7524 28.4979 92.0601 28.4121 92.4141 28.4121C92.7027 28.4121 92.9594 28.4682 93.1859 28.577C93.4107 28.6875 93.5909 28.8409 93.728 29.0388C93.8683 29.2335 93.9512 29.4611 93.9767 29.725H93.2624C93.2241 29.5402 93.1348 29.3819 92.9945 29.25C92.8542 29.118 92.6645 29.052 92.4269 29.052C92.2228 29.052 92.0442 29.1098 91.8911 29.2236C91.738 29.3341 91.6185 29.4924 91.5339 29.6986C91.4478 29.9014 91.4064 30.1406 91.4064 30.4177C91.4064 30.7046 91.4463 30.9504 91.5276 31.1566C91.6121 31.3644 91.7317 31.5243 91.8847 31.6382C92.0378 31.7536 92.218 31.8097 92.4269 31.8097C92.5672 31.8097 92.6948 31.7833 92.8096 31.7305C92.9244 31.6777 93.02 31.6019 93.0966 31.4996C93.1763 31.399 93.2321 31.2786 93.2624 31.1368H93.9767C93.9512 31.3924 93.8715 31.6184 93.7408 31.8163C93.6084 32.0142 93.4298 32.1709 93.205 32.2847C92.9834 32.3985 92.7235 32.4562 92.4269 32.4562Z" fill="#434569"/>
<path d="M95.5045 30.0554V32.3776H94.771V27.1592H95.4981V29.0988H95.5427C95.632 28.8877 95.7676 28.7211 95.9509 28.5974C96.1327 28.4753 96.3719 28.4127 96.6653 28.4127C96.9236 28.4127 97.15 28.4687 97.3414 28.5776C97.5359 28.6881 97.6874 28.853 97.7942 29.0724C97.9042 29.2884 97.96 29.5606 97.96 29.8904V32.3776H97.2202V29.9762C97.2202 29.6909 97.1468 29.4682 97.0033 29.3099C96.863 29.1515 96.6653 29.0724 96.4102 29.0724C96.2348 29.0724 96.0801 29.112 95.9446 29.1911C95.8074 29.267 95.699 29.3758 95.6193 29.521C95.5427 29.6661 95.5045 29.8442 95.5045 30.0554Z" fill="#434569"/>
<path d="M100.043 32.4628C99.8038 32.4628 99.5869 32.4166 99.3924 32.3243C99.201 32.2319 99.048 32.0983 98.9332 31.9218C98.8215 31.747 98.7673 31.5293 98.7673 31.2687C98.7673 31.0493 98.8072 30.8696 98.8885 30.7277C98.9682 30.5826 99.0799 30.4688 99.2202 30.3847C99.3605 30.3022 99.5152 30.2395 99.6858 30.2C99.8596 30.1571 100.037 30.1241 100.215 30.101C100.445 30.0746 100.63 30.0532 100.77 30.035C100.91 30.0185 101.012 29.9888 101.076 29.9493C101.14 29.9064 101.172 29.8371 101.172 29.7447V29.7316C101.172 29.5072 101.111 29.3341 100.993 29.2104C100.874 29.0883 100.695 29.0257 100.458 29.0257C100.206 29.0257 100.008 29.0834 99.8644 29.1972C99.724 29.3126 99.6284 29.438 99.5773 29.5732L98.8821 29.4083C98.9619 29.1708 99.0815 28.9795 99.2393 28.8343C99.4004 28.6859 99.5837 28.577 99.7878 28.5111C99.9951 28.4451 100.215 28.4121 100.445 28.4121C100.598 28.4121 100.757 28.4303 100.923 28.4649C101.092 28.5012 101.252 28.5671 101.401 28.6628C101.55 28.7601 101.671 28.8987 101.765 29.0784C101.862 29.2599 101.912 29.4924 101.912 29.7777V32.377H101.191V31.8427H101.165C101.118 31.94 101.046 32.0373 100.949 32.1329C100.855 32.2303 100.732 32.3094 100.579 32.3704C100.429 32.4315 100.25 32.4628 100.043 32.4628ZM100.202 31.8493C100.406 31.8493 100.58 31.8097 100.725 31.7305C100.874 31.648 100.987 31.5375 101.063 31.4007C101.14 31.2654 101.178 31.1203 101.178 30.9652V30.4572C101.153 30.4886 101.102 30.515 101.025 30.5364C100.949 30.5595 100.863 30.5793 100.77 30.5958C100.676 30.609 100.582 30.6222 100.489 30.6354C100.4 30.6486 100.325 30.6601 100.266 30.6684C100.121 30.6865 99.9887 30.7178 99.8707 30.7607C99.7559 30.8053 99.6619 30.8696 99.5901 30.952C99.5215 31.0362 99.4881 31.1467 99.4881 31.2819C99.4881 31.4716 99.5534 31.6151 99.6858 31.7107C99.8213 31.8031 99.9935 31.8493 100.202 31.8493Z" fill="#434569"/>
<path d="M102.894 32.3775V28.4654H103.602V29.0855H103.647C103.714 28.8744 103.835 28.7095 104.01 28.5907C104.184 28.4687 104.382 28.406 104.604 28.406C104.65 28.406 104.706 28.4093 104.769 28.4126C104.833 28.4126 104.881 28.4159 104.916 28.4192V29.1515C104.886 29.1432 104.833 29.135 104.757 29.1251C104.683 29.1119 104.61 29.1053 104.533 29.1053C104.358 29.1053 104.203 29.1432 104.068 29.2175C103.931 29.2933 103.822 29.3989 103.743 29.5341C103.666 29.6661 103.628 29.8178 103.628 29.9893V32.3775H102.894Z" fill="#434569"/>
<path d="M107.141 33.9274C106.843 33.9274 106.586 33.8845 106.369 33.802C106.152 33.7229 105.975 33.614 105.84 33.4788C105.703 33.3468 105.601 33.1984 105.534 33.0368L106.165 32.7729C106.211 32.8471 106.27 32.9263 106.344 33.0104C106.42 33.0928 106.522 33.1638 106.65 33.2215C106.781 33.2825 106.95 33.3138 107.154 33.3138C107.43 33.3138 107.659 33.2429 107.842 33.1027C108.024 32.9609 108.117 32.7399 108.117 32.4364V31.6645H108.072C108.024 31.7487 107.959 31.841 107.874 31.9416C107.793 32.0439 107.68 32.1313 107.536 32.2055C107.391 32.2814 107.205 32.3177 106.975 32.3177C106.677 32.3177 106.407 32.2451 106.165 32.1C105.926 31.9548 105.738 31.7421 105.597 31.46C105.46 31.1747 105.393 30.8234 105.393 30.4045C105.393 29.9872 105.46 29.6309 105.597 29.3357C105.733 29.0372 105.919 28.8079 106.159 28.6496C106.401 28.4913 106.675 28.4121 106.981 28.4121C107.214 28.4121 107.404 28.455 107.549 28.5375C107.693 28.6166 107.806 28.709 107.887 28.8145C107.967 28.9201 108.031 29.0158 108.078 29.0982H108.129V28.4649H108.85V32.4628C108.85 32.8009 108.774 33.078 108.621 33.2941C108.471 33.5085 108.267 33.6668 108.008 33.7691C107.753 33.8746 107.463 33.9274 107.141 33.9274ZM107.135 31.6843C107.347 31.6843 107.525 31.6349 107.67 31.5326C107.819 31.432 107.932 31.2852 108.008 31.0906C108.085 30.8976 108.123 30.6651 108.123 30.3913C108.123 30.1323 108.085 29.9014 108.008 29.6986C107.935 29.4974 107.825 29.3407 107.677 29.2302C107.532 29.1164 107.351 29.0586 107.135 29.0586C106.913 29.0586 106.728 29.118 106.58 29.2368C106.435 29.3555 106.325 29.5171 106.248 29.7184C106.171 29.9212 106.133 30.1455 106.133 30.3913C106.133 30.6519 106.171 30.8778 106.248 31.0708C106.325 31.2654 106.436 31.4171 106.586 31.526C106.734 31.6316 106.918 31.6843 107.135 31.6843Z" fill="#434569"/>
<path d="M111.467 32.4562C111.097 32.4562 110.775 32.3754 110.503 32.2121C110.236 32.0455 110.028 31.8097 109.885 31.5062C109.74 31.2027 109.668 30.8498 109.668 30.4441C109.668 30.0449 109.74 29.692 109.885 29.3885C110.028 29.0817 110.232 28.8409 110.497 28.6694C110.76 28.4979 111.066 28.4121 111.416 28.4121C111.632 28.4121 111.84 28.45 112.041 28.5243C112.24 28.5952 112.419 28.709 112.576 28.8673C112.737 29.0224 112.863 29.2236 112.953 29.4743C113.045 29.7217 113.093 30.0218 113.093 30.3781V30.6486H110.083V30.0746H112.372C112.372 29.8767 112.331 29.7019 112.251 29.5468C112.175 29.3885 112.063 29.2664 111.919 29.1774C111.779 29.085 111.613 29.0388 111.422 29.0388C111.213 29.0388 111.033 29.0916 110.88 29.1972C110.727 29.3027 110.607 29.4396 110.523 29.6062C110.441 29.7744 110.401 29.9542 110.401 30.1472V30.5958C110.401 30.8564 110.446 31.0774 110.535 31.2621C110.625 31.4468 110.749 31.5887 110.912 31.6843C111.073 31.7816 111.262 31.8295 111.479 31.8295C111.615 31.8295 111.741 31.8097 111.856 31.7701C111.974 31.7272 112.074 31.6629 112.155 31.5788C112.24 31.4963 112.304 31.3924 112.347 31.2687L113.048 31.4007C112.993 31.6118 112.892 31.7965 112.749 31.9548C112.603 32.1132 112.423 32.2368 112.206 32.3243C111.99 32.4117 111.742 32.4562 111.467 32.4562Z" fill="#434569"/>
<path d="M5.76749 14.4282L12.0196 22.9881C12.1822 23.2108 12.3337 23.4417 12.4756 23.6792C12.6159 23.9167 12.7451 24.1624 12.8615 24.4131C12.9795 24.6638 13.0847 24.9211 13.1788 25.1817C13.2713 25.4439 13.3526 25.7095 13.4196 25.98C13.4881 26.2504 13.5423 26.5226 13.5838 26.798C13.6269 27.0734 13.6556 27.3505 13.6715 27.6293C13.6874 27.908 13.689 28.1867 13.6779 28.4655C13.6683 28.7442 13.6444 29.0213 13.6061 29.2984C13.5694 29.5754 13.52 29.8492 13.4562 30.1197C13.3925 30.3902 13.3175 30.659 13.2282 30.9213C13.1405 31.1852 13.0401 31.4441 12.9269 31.6965C12.8136 31.9504 12.6893 32.1978 12.5521 32.4386C12.415 32.6794 12.2683 32.912 12.1089 33.1379C11.951 33.3639 11.782 33.58 11.6018 33.7894C11.4232 33.9972 11.2351 34.1968 11.0358 34.3848C10.838 34.5745 10.6324 34.7543 10.4171 34.9225L4.16501 26.3626C4.00237 26.1399 3.85089 25.909 3.71057 25.6715C3.56866 25.434 3.4395 25.1883 3.3231 24.9376C3.20511 24.6869 3.09987 24.4296 3.00739 24.1674C2.91331 23.9068 2.83359 23.6396 2.76502 23.3708C2.69646 23.1003 2.64225 22.8281 2.60079 22.5527C2.55774 22.2756 2.52904 21.9985 2.51309 21.7215C2.49874 21.4427 2.49555 21.164 2.50671 20.8853C2.51787 20.6065 2.54179 20.3278 2.57846 20.0524C2.61514 19.7753 2.66616 19.5015 2.72835 19.231C2.79213 18.9589 2.86707 18.6917 2.95636 18.4278C3.04406 18.1655 3.14611 17.9066 3.25773 17.6526C3.37094 17.4003 3.4969 17.1529 3.63244 16.9121C3.76957 16.6713 3.91626 16.4387 4.07571 16.2128C4.23357 15.9868 4.40259 15.7708 4.58277 15.5613C4.76135 15.3535 4.94951 15.1539 5.14882 14.9642C5.34654 14.7762 5.55383 14.5965 5.76749 14.4282Z" fill="#222550"/>
<path d="M10.3804 3.65283L16.6325 12.2127C16.7952 12.4354 16.9466 12.6646 17.087 12.9038C17.2273 13.1413 17.3564 13.387 17.4744 13.6377C17.5924 13.8884 17.6976 14.1457 17.7901 14.408C17.8842 14.6685 17.9639 14.9357 18.0325 15.2062C18.0995 15.4751 18.1553 15.7488 18.1967 16.0243C18.2382 16.2997 18.2685 16.5768 18.2828 16.8555C18.2988 17.1343 18.302 17.413 18.2908 17.6917C18.2796 17.9705 18.2557 18.2492 18.2191 18.5246C18.1808 18.8017 18.1314 19.0755 18.0676 19.346C18.0038 19.6181 17.9289 19.8853 17.8396 20.1492C17.7519 20.4131 17.6498 20.672 17.5366 20.9244C17.4234 21.1784 17.299 21.4258 17.1619 21.6665C17.0264 21.9057 16.8781 22.1399 16.7186 22.3659C16.5608 22.5902 16.3917 22.8079 16.2116 23.0157C16.033 23.2251 15.8432 23.4231 15.6455 23.6127C15.4462 23.8024 15.2405 23.9805 15.0252 24.1488L8.77316 15.5889C8.61052 15.3662 8.45904 15.1369 8.31713 14.8978C8.17681 14.6603 8.04765 14.4162 7.92966 14.1639C7.81326 13.9132 7.70802 13.6559 7.61395 13.3953C7.52146 13.133 7.44014 12.8659 7.37317 12.597C7.30461 12.3265 7.2504 12.0527 7.20734 11.7773C7.16589 11.5019 7.13719 11.2248 7.12124 10.9461C7.1053 10.6673 7.1037 10.3886 7.11486 10.1099C7.12443 9.83113 7.14994 9.5524 7.18662 9.27696C7.22329 8.99988 7.27431 8.7261 7.3365 8.45561C7.40028 8.18347 7.47682 7.91629 7.56452 7.6524C7.65381 7.38851 7.75426 7.13122 7.86747 6.87722C7.98068 6.62323 8.10665 6.37748 8.24218 6.13669C8.37931 5.89589 8.5276 5.66169 8.68546 5.43738C8.84491 5.21143 9.01393 4.99372 9.19251 4.78591C9.37269 4.57644 9.56085 4.37853 9.76016 4.18886C9.95788 3.99919 10.1652 3.82106 10.3804 3.65283Z" fill="#0AD97C"/>
</svg>
